<svg version="1.1" id="Layer_1" xmlns="http://www.w3.org/2000/svg" xmlns:xlink="http://www.w3.org/1999/xlink" x="0px" y="0px"
	 width="100%" viewBox="0 0 461 411" enable-background="new 0 0 461 411" xml:space="preserve">
<path fill="#F7F7F6" opacity="1.000000" stroke="none" 
	d="
M253.000000,412.000000 
	C170.023636,412.000000 87.547249,411.976959 5.071025,412.084991 
	C1.803628,412.089294 0.893296,411.643066 0.896552,408.073120 
	C1.019049,273.778381 1.021293,139.483505 0.890392,5.188780 
	C0.886716,1.417755 1.867002,0.914252 5.308945,0.916461 
	C156.098984,1.013257 306.889130,1.012707 457.679169,0.919192 
	C461.089050,0.917078 462.115784,1.373046 462.112000,5.176918 
	C461.978088,139.471634 461.981323,273.766541 462.102142,408.061249 
	C462.105316,411.606934 461.233826,412.092957 457.940796,412.087341 
	C389.794037,411.971405 321.646973,412.000000 253.000000,412.000000 
z"/>
<path fill="#FFC71E" opacity="1.000000" stroke="none" 
	d="
M88.718597,239.446381 
	C89.584999,244.226059 89.277069,248.286682 85.181854,250.988464 
	C79.824203,254.523132 73.031921,251.514725 71.242432,244.677628 
	C66.955040,228.296829 65.163910,211.606430 66.244644,194.715363 
	C67.974754,167.675278 75.644882,142.407654 90.252098,119.486275 
	C114.096130,82.070610 147.412903,57.529449 190.902512,48.049934 
	C274.332275,29.864578 354.269592,76.901123 379.461487,158.445740 
	C398.388824,219.712479 376.093109,289.926392 325.479401,329.347046 
	C293.972412,353.886292 258.325134,365.593109 218.559753,363.787231 
	C178.194061,361.954102 143.387360,346.560883 114.260544,318.495270 
	C109.253952,313.671082 108.809647,308.652405 112.800575,304.512756 
	C116.666756,300.502411 122.027504,300.771881 126.864876,305.444702 
	C149.378662,327.192688 176.079422,340.816895 207.116791,344.508392 
	C256.867859,350.425598 299.043030,334.619080 332.662262,297.360291 
	C351.799530,276.151215 362.966187,250.907547 366.642090,222.608124 
	C375.046234,157.907608 339.184113,96.067459 278.009369,72.095650 
	C222.025665,50.157997 161.502869,64.473465 120.979996,108.850296 
	C99.424141,132.456268 87.599968,160.518219 84.822510,192.493408 
	C83.449791,208.296707 84.922554,223.712219 88.718597,239.446381 
z"/>
<path fill="#FFC71E" opacity="1.000000" stroke="none" 
	d="
M284.678955,295.754822 
	C310.545044,278.634674 326.445923,255.098831 332.641815,225.147812 
	C334.050903,218.336166 334.302948,211.273041 334.901733,204.309677 
	C335.395935,198.562515 338.672150,194.985046 343.834686,194.967560 
	C349.001190,194.950058 353.098083,199.073425 352.947510,204.767181 
	C351.955078,242.295578 337.989502,274.074554 309.861053,299.097534 
	C285.580688,320.697266 256.719055,331.286316 224.352493,330.882568 
	C163.787018,330.127075 112.072617,286.581635 101.075615,226.295959 
	C88.587555,157.836288 134.826996,91.555618 203.588257,79.061104 
	C255.659729,69.599266 308.850281,94.237000 335.665314,139.933426 
	C339.067383,145.730942 337.912140,151.217239 336.501801,156.786667 
	C331.261383,177.481018 312.085815,191.626511 290.536926,191.003036 
	C269.820892,190.403656 250.833023,174.634995 247.261093,153.957092 
	C244.205185,136.266403 249.542694,121.067696 263.603943,109.373337 
	C265.360626,107.912315 267.254364,106.616066 269.569580,104.879753 
	C261.778229,100.691971 253.817688,98.564171 245.756027,97.139198 
	C200.101746,89.069397 156.453323,109.099503 132.345718,148.959839 
	C102.757843,197.881454 118.229134,264.654205 166.804047,294.927704 
	C205.538712,319.068420 244.984863,318.681915 284.678955,295.754822 
z"/>
<path fill="#FFC71E" opacity="1.000000" stroke="none" 
	d="
M198.432053,132.414368 
	C214.584518,141.010193 222.458008,156.216751 219.973618,173.583267 
	C217.898651,188.087753 205.180817,201.502197 190.459579,204.713928 
	C173.884979,208.330017 157.403000,201.382050 148.720490,187.118851 
	C140.131836,173.009857 141.527878,155.421967 152.268509,142.418610 
	C162.524200,130.002380 180.069778,125.523232 195.780777,131.313797 
	C196.561462,131.601532 197.331512,131.918091 198.432053,132.414368 
z"/>
<path fill="#FFC71D" opacity="1.000000" stroke="none" 
	d="
M246.763077,218.752029 
	C257.474121,209.197540 269.510895,206.848145 282.262634,212.151367 
	C295.050171,217.469437 301.808716,227.854340 302.655823,241.697784 
	C303.561951,256.505249 291.329163,271.861603 276.678741,274.768005 
	C260.530609,277.971588 244.087555,269.063477 238.873779,254.010864 
	C234.325317,240.879028 236.779251,229.106644 246.763077,218.752029 
z"/>
<path fill="#FFC71E" opacity="1.000000" stroke="none" 
	d="
M173.903214,233.883789 
	C191.304916,220.445953 213.561691,228.373123 217.210831,248.976471 
	C219.663757,262.826019 210.252853,276.408081 196.483185,278.891052 
	C182.465302,281.418823 168.852127,272.436127 166.021530,258.717407 
	C164.047256,249.148911 166.913712,241.025406 173.903214,233.883789 
z"/>
<path fill="#FEE186" opacity="1.000000" stroke="none" 
	d="
M317.521851,145.764832 
	C319.750366,148.453720 319.162598,151.003891 318.335205,153.623062 
	C313.775879,168.056091 300.827972,173.622299 290.515717,172.699173 
	C275.301270,171.337219 265.277374,159.973434 264.864532,145.802277 
	C264.594788,136.542923 267.932587,128.884018 275.130432,123.653374 
	C283.693970,117.430252 289.793335,114.268387 299.173462,123.665253 
	C305.889069,130.392822 312.328522,137.295792 317.521851,145.764832 
z"/>
<path fill="#FEE186" opacity="1.000000" stroke="none" 
	d="
M201.975861,164.431030 
	C202.847473,173.960098 199.062531,180.752960 191.254471,185.090683 
	C184.670670,188.748322 177.797852,188.231354 171.340286,184.573242 
	C163.475586,180.117996 159.983948,171.092529 162.167480,161.770233 
	C163.933929,154.228561 171.788986,147.614243 179.730316,146.981537 
	C189.094437,146.235489 197.449097,151.265213 200.741165,159.699707 
	C201.279968,161.080124 201.557648,162.562439 201.975861,164.431030 
z"/>
<path fill="#FEE186" opacity="1.000000" stroke="none" 
	d="
M262.846741,255.482025 
	C255.954453,250.794342 253.407379,244.713211 255.400696,238.305237 
	C257.215515,232.471130 262.740631,228.333298 268.636414,227.926331 
	C275.048126,227.483734 279.779968,230.344421 282.558990,235.635147 
	C285.228973,240.718292 285.117432,246.304565 281.404633,251.127243 
	C277.365143,256.374329 271.895630,258.051727 265.472839,256.634003 
	C264.677399,256.458405 263.943420,256.004395 262.846741,255.482025 
z"/>
<path fill="#FEE084" opacity="1.000000" stroke="none" 
	d="
M185.628815,258.217590 
	C182.968399,254.668579 183.342102,251.338593 185.481232,248.253845 
	C187.190613,245.788864 189.806030,244.470703 192.831329,245.192856 
	C196.064194,245.964523 198.251999,248.009079 199.328079,251.367325 
	C200.616089,255.386948 198.323502,257.803040 195.662231,259.756012 
	C192.244827,262.263885 188.821655,261.564636 185.628815,258.217590 
z"/>
</svg>