<?xml version="1.0" encoding="UTF-8"?>
<svg version="1.1" xmlns="http://www.w3.org/2000/svg" width="128" height="128">
<path d="M0 0 C1.0607222 0.00022659 2.1214444 0.00045319 3.21430969 0.00068665 C4.34781357 0.0161705 5.48131744 0.03165436 6.64916992 0.04760742 C7.81848557 0.05185226 8.98780121 0.05609711 10.19255066 0.06047058 C13.92181567 0.07724333 17.65053739 0.11489425 21.37963867 0.15307617 C23.91022982 0.16812477 26.44082945 0.18181286 28.97143555 0.1940918 C35.17018816 0.22714234 41.36862459 0.27732847 47.56713867 0.34057617 C47.13694961 1.80215435 46.69196058 3.25938219 46.24072266 4.71459961 C45.99450668 5.52652771 45.74829071 6.33845581 45.49461365 7.17498779 C44.56713867 9.34057617 44.56713867 9.34057617 41.78979492 11.35620117 C40.74694336 11.76354492 39.7040918 12.17088867 38.62963867 12.59057617 C32.98053402 14.85861819 30.1808887 17.20331871 27.37963867 22.64916992 C26.10569248 26.86911667 25.78614458 31.17854394 25.35620117 35.5456543 C24.95007523 39.27431062 24.27454176 42.03521892 22.56713867 45.34057617 C22.53582198 47.485654 22.53582198 47.485654 22.94213867 49.59057617 C23.14838867 50.82807617 23.35463867 52.06557617 23.56713867 53.34057617 C24.98147074 53.56420987 26.39881485 53.76884093 27.81713867 53.96557617 C28.60604492 54.0815918 29.39495117 54.19760742 30.20776367 54.31713867 C32.5540684 54.52221791 32.5540684 54.52221791 34.37182617 53.42260742 C38.13629617 51.5671658 42.41012992 51.5821493 46.54760742 51.2175293 C52.57175696 50.58788655 56.86741052 49.04030433 61.25463867 44.65307617 C63.15641068 42.26397509 63.95870942 40.20753801 64.75463867 37.27807617 C65.63340318 34.68040965 66.03108565 33.62720044 68.48120117 32.31713867 C69.27268555 32.01549805 70.06416992 31.71385742 70.87963867 31.40307617 C79.08570765 27.97276964 83.99177692 19.81565973 89.21362305 12.93530273 C90.56713867 11.34057617 90.56713867 11.34057617 92.56713867 10.34057617 C92.56713867 27.17057617 92.56713867 44.00057617 92.56713867 61.34057617 C57.58713867 61.34057617 22.60713867 61.34057617 -13.43286133 61.34057617 C-13.43286133 8.34057617 -13.43286133 8.34057617 -10.43286133 3.34057617 C-6.91068932 0.65356236 -4.38980953 -0.03143062 0 0 Z " fill="#000000" transform="translate(16.432861328125,30.659423828125)"/>
<path d="M0 0 C34.98 0 69.96 0 106 0 C105 9 105 9 102.91918945 12.03198242 C99.2999915 14.47192176 96.50819507 14.6445679 92.29296875 14.48828125 C91.56757401 14.48120651 90.84217926 14.47413177 90.09480286 14.46684265 C87.79129297 14.43898406 85.49026749 14.37627191 83.1875 14.3125 C81.62047797 14.28740563 80.0534176 14.26459444 78.48632812 14.24414062 C74.65660344 14.18918681 70.82872203 14.10298226 67 14 C67 16.64 67 19.28 67 22 C68.918125 21.938125 68.918125 21.938125 70.875 21.875 C73.0546875 21.8046875 73.0546875 21.8046875 75 22 C77 24 77 24 77.1875 26.5625 C77 29 77 29 76 30 C74.56259647 30.09813987 73.12043673 30.1279828 71.6796875 30.12939453 C70.76203613 30.13254669 69.84438477 30.13569885 68.89892578 30.13894653 C67.90103027 30.1369223 66.90313477 30.13489807 65.875 30.1328125 C64.85776855 30.13376923 63.84053711 30.13472595 62.79248047 30.13571167 C60.63704364 30.13639361 58.48160478 30.13453835 56.32617188 30.13037109 C53.01427629 30.12502305 49.70251633 30.13031563 46.390625 30.13671875 C44.30208303 30.13605797 42.21354115 30.13477681 40.125 30.1328125 C38.62815674 30.13584885 38.62815674 30.13584885 37.10107422 30.13894653 C36.18342285 30.13579437 35.26577148 30.13264221 34.3203125 30.12939453 C33.50836426 30.12859894 32.69641602 30.12780334 31.85986328 30.12698364 C30 30 30 30 29 29 C28.8125 26.5625 28.8125 26.5625 29 24 C31 22 31 22 32.9453125 21.8046875 C34.96354167 21.86979167 36.98177083 21.93489583 39 22 C39 19.36 39 16.72 39 14 C37.53977417 14.03927612 37.53977417 14.03927612 36.05004883 14.0793457 C32.42544698 14.17010021 28.80094473 14.22733901 25.17553711 14.2746582 C23.60895886 14.29974547 22.04249701 14.33382415 20.47631836 14.37719727 C18.21959691 14.43811226 15.96442706 14.46626499 13.70703125 14.48828125 C13.01100296 14.51408768 12.31497467 14.5398941 11.59785461 14.56648254 C7.98733699 14.56854754 6.09133233 14.06157313 3.08081055 12.03198242 C1 9 1 9 0 0 Z " fill="#000000" transform="translate(3,98)"/>
<path d="M0 0 C3.22932894 1.22922844 4.36532328 2.59136537 5.81640625 5.69140625 C5.62024768 11.5551464 3.63042846 14.96499402 -0.05859375 19.31640625 C-0.7853833 20.20730957 -0.7853833 20.20730957 -1.52685547 21.11621094 C-3.06273925 22.98895039 -4.61952127 24.84216604 -6.18359375 26.69140625 C-6.70501953 27.31047852 -7.22644531 27.92955078 -7.76367188 28.56738281 C-9.74785218 30.92033756 -11.73214781 33.27265039 -13.74169922 35.60400391 C-16.2259878 38.46545686 -16.2259878 38.46545686 -18.18359375 41.69140625 C-21.61113842 41.11029954 -23.22898036 40.00587001 -25.63671875 37.53125 C-26.25546875 36.90283203 -26.87421875 36.27441406 -27.51171875 35.62695312 C-28.1459375 34.96759766 -28.78015625 34.30824219 -29.43359375 33.62890625 C-30.08328125 32.96568359 -30.73296875 32.30246094 -31.40234375 31.61914062 C-33.00306135 29.98311308 -34.59635568 28.34049713 -36.18359375 26.69140625 C-34.30845378 22.48774088 -31.49089748 20.32857734 -27.87109375 17.62890625 C-24.01957378 14.71493061 -20.23679792 11.80333324 -16.68359375 8.52734375 C-6.39074199 -0.92977646 -6.39074199 -0.92977646 0 0 Z " fill="#000000" transform="translate(119.18359375,-0.69140625)"/>
<path d="M0 0 C4.03843343 2.60254599 6.29289779 5.25369336 7.8125 9.8125 C8.34712577 16.22800928 7.68849437 19.61050755 3.8125 24.8125 C-0.94604587 28.4729199 -6.20001456 28.18531006 -11.97265625 28.49609375 C-16.16807165 28.90900827 -19.36281175 30.08764059 -23.1875 31.8125 C-24.56486715 28.09360869 -23.63728764 26.38864284 -22.1875 22.8125 C-21.78279963 19.46766875 -21.45677846 16.14434395 -21.24023438 12.78320312 C-20.71538179 7.30083209 -19.08112597 4.71794274 -15.1875 0.8125 C-10.25711815 -2.0419316 -5.27340493 -1.96460184 0 0 Z " fill="#000000" transform="translate(69.1875,48.1875)"/>
<path d="M0 0 C6.41069287 5.27101414 12.18590512 11.09128152 18 17 C16.15873359 20.87590782 13.98101592 23.88033217 11 27 C8.33203125 27.67578125 8.33203125 27.67578125 6 28 C5.45472656 26.98679687 5.45472656 26.98679687 4.8984375 25.953125 C1.83317858 20.51425532 -0.43375243 16.90412917 -6 14 C-6.78375 13.5875 -7.5675 13.175 -8.375 12.75 C-8.91125 12.5025 -9.4475 12.255 -10 12 C-8.62968895 6.34746692 -4.32310587 3.4886459 0 0 Z " fill="#000000" transform="translate(77,29)"/>
</svg>
