<?xml version="1.0" encoding="UTF-8"?>
<svg version="1.1" xmlns="http://www.w3.org/2000/svg" width="128" height="128">
<path d="M0 0 C4.62 0 9.24 0 14 0 C14 1.65 14 3.3 14 5 C28.52 5 43.04 5 58 5 C58.33 3.68 58.66 2.36 59 1 C62.3 1 65.6 1 69 1 C69.495 2.98 69.495 2.98 70 5 C84.52 5 99.04 5 114 5 C114 3.35 114 1.7 114 0 C118.62 0 123.24 0 128 0 C128 4.62 128 9.24 128 14 C126.35 14 124.7 14 123 14 C123 28.52 123 43.04 123 58 C124.98 58.495 124.98 58.495 127 59 C127 62.3 127 65.6 127 69 C125.68 69.33 124.36 69.66 123 70 C123 84.52 123 99.04 123 114 C124.65 114 126.3 114 128 114 C128 118.62 128 123.24 128 128 C123.38 128 118.76 128 114 128 C114 126.35 114 124.7 114 123 C99.48 123 84.96 123 70 123 C69.505 124.98 69.505 124.98 69 127 C65.7 127 62.4 127 59 127 C58.67 125.68 58.34 124.36 58 123 C43.48 123 28.96 123 14 123 C14 124.65 14 126.3 14 128 C9.38 128 4.76 128 0 128 C0 123.38 0 118.76 0 114 C1.65 114 3.3 114 5 114 C5 99.48 5 84.96 5 70 C3.68 69.67 2.36 69.34 1 69 C1 65.7 1 62.4 1 59 C2.98 58.505 2.98 58.505 5 58 C5 43.48 5 28.96 5 14 C3.35 14 1.7 14 0 14 C0 9.38 0 4.76 0 0 Z " fill="#FEDE7B" transform="translate(0,0)"/>
<path d="M0 0 C4.62 0 9.24 0 14 0 C15.17043997 3.29036952 16.33650534 6.58217536 17.5 9.875 C17.83386719 10.81214844 18.16773438 11.74929687 18.51171875 12.71484375 C18.82753906 13.61074219 19.14335938 14.50664063 19.46875 15.4296875 C19.76201172 16.25710449 20.05527344 17.08452148 20.35742188 17.93701172 C21 20 21 20 21 22 C21.99 22 22.98 22 24 22 C23.47599609 20.24623047 23.47599609 20.24623047 22.94140625 18.45703125 C22.4816548 16.90888862 22.02202583 15.36070961 21.5625 13.8125 C21.33240234 13.04357422 21.10230469 12.27464844 20.86523438 11.48242188 C19.73764014 7.67474859 18.6831823 3.91848238 18 0 C20.64 0 23.28 0 26 0 C28.47568624 6.90767747 30.94316855 13.81825829 33.40582275 20.73059082 C34.97984352 25.14631925 36.55887532 29.56021523 38.14208984 33.97265625 C40.08491984 39.38753559 42.02123115 44.80471345 43.95413208 50.22314453 C44.73499673 52.40851536 45.51810059 54.59308737 46.30343628 56.77685547 C47.41911098 59.88042057 48.5268069 62.9867283 49.6328125 66.09375 C49.97297897 67.03432251 50.31314545 67.97489502 50.66362 68.94396973 C50.97201309 69.81517456 51.28040619 70.68637939 51.59814453 71.58398438 C51.86998566 72.34336304 52.14182678 73.1027417 52.42190552 73.88513184 C53 76 53 76 53 80 C50.36 80 47.72 80 45 80 C44.6717347 79.02614098 44.6717347 79.02614098 44.33683777 78.03260803 C42.06357572 71.29622678 39.77386151 64.56560489 37.47436523 57.83813477 C36.61755956 55.32428545 35.76500703 52.80898244 34.91674805 50.29223633 C33.69906223 46.68182987 32.46634129 43.07687124 31.23046875 39.47265625 C30.85222458 38.34038101 30.47398041 37.20810577 30.08427429 36.04151917 C29.72412735 35.00051559 29.36398041 33.95951202 28.99291992 32.88696289 C28.67981369 31.96540909 28.36670746 31.04385529 28.04411316 30.09437561 C27.69955582 29.40323166 27.35499847 28.71208771 27 28 C26.01 27.67 25.02 27.34 24 27 C25.70570386 32.14670867 27.41457019 37.29236012 29.125 42.4375 C29.37577301 43.19242737 29.62654602 43.94735474 29.88491821 44.72515869 C32.95977545 53.97606829 36.03892734 63.2217476 39.42431641 72.36499023 C40.41597885 75.0862878 41 77.06940665 41 80 C38.03 80 35.06 80 32 80 C30.99600476 77.37646482 29.99665555 74.75132205 29 72.125 C28.71382812 71.37863281 28.42765625 70.63226563 28.1328125 69.86328125 C26 64.2265625 26 64.2265625 26 62 C13.46 62 0.92 62 -12 62 C-12.33 64.31 -12.66 66.62 -13 69 C-12.34 69 -11.68 69 -11 69 C-10.505 67.515 -10.505 67.515 -10 66 C-7.03 66 -4.06 66 -1 66 C-2.65 70.62 -4.3 75.24 -6 80 C-8.64 80 -11.28 80 -14 80 C-13.67 78.35 -13.34 76.7 -13 75 C-14.32 75 -15.64 75 -17 75 C-17.33 76.65 -17.66 78.3 -18 80 C-20.97 80 -23.94 80 -27 80 C-26.39558371 73.86244634 -24.59234349 68.47783323 -22.5 62.6953125 C-21.97187965 61.21132462 -21.97187965 61.21132462 -21.43309021 59.69735718 C-20.29500806 56.50428769 -19.14765636 53.31463934 -18 50.125 C-17.22087602 47.94486134 -16.442312 45.76452248 -15.66430664 43.58398438 C-13.78328919 38.31698738 -11.89487683 33.05268676 -10.00274658 27.78967285 C-9.1059562 25.29477351 -8.21048504 22.79940815 -7.31591797 20.30371094 C-4.88845818 13.53173936 -2.4522939 6.76302134 0 0 Z " fill="#A791E5" transform="translate(51,24)"/>
<path d="M0 0 C1.24007812 -0.00386719 2.48015625 -0.00773437 3.7578125 -0.01171875 C5.70300781 0.00568359 5.70300781 0.00568359 7.6875 0.0234375 C8.98429687 0.01183594 10.28109375 0.00023438 11.6171875 -0.01171875 C12.85726562 -0.00785156 14.09734375 -0.00398438 15.375 0 C16.51324219 0.00338379 17.65148437 0.00676758 18.82421875 0.01025391 C22.11813478 0.45681994 22.65084675 0.89093982 24.6875 3.3984375 C25.6643219 5.54490662 25.6643219 5.54490662 26.52172852 8.06811523 C26.8499057 9.01947861 27.17808289 9.97084198 27.51620483 10.95103455 C27.8627713 11.98426346 28.20933777 13.01749237 28.56640625 14.08203125 C28.93520905 15.15759781 29.30401184 16.23316437 29.68399048 17.34132385 C30.8808359 20.83679683 32.06562199 24.33622263 33.25 27.8359375 C34.86924547 32.58571341 36.49336227 37.33381946 38.1171875 42.08203125 C38.71188087 43.82545303 38.71188087 43.82545303 39.31858826 45.60409546 C41.52889332 52.07046518 43.78074611 58.51741454 46.1328125 64.93359375 C46.37658127 65.60063828 46.62035004 66.2676828 46.87150574 66.9549408 C47.94468748 69.88485388 49.03025377 72.80936437 50.13305664 75.72827148 C50.49520264 76.71255127 50.85734863 77.69683105 51.23046875 78.7109375 C51.54008545 79.53207031 51.84970215 80.35320312 52.16870117 81.19921875 C52.7525894 83.67435527 52.56161117 85.03177416 51.6875 87.3984375 C49.08190742 90.00403008 41.81443537 88.68201182 38.3125 88.7109375 C37.14976563 88.73994141 35.98703125 88.76894531 34.7890625 88.79882812 C33.6753125 88.80720703 32.5615625 88.81558594 31.4140625 88.82421875 C29.87613037 88.84609253 29.87613037 88.84609253 28.30712891 88.8684082 C25.6875 88.3984375 25.6875 88.3984375 23.91625977 86.57397461 C21.21914867 81.79870002 19.58489139 76.52652233 17.6875 71.3984375 C11.0875 71.3984375 4.4875 71.3984375 -2.3125 71.3984375 C-4.20279981 76.24263237 -4.20279981 76.24263237 -6.08154297 81.09130859 C-8.09027778 86.17621528 -8.09027778 86.17621528 -10.3125 88.3984375 C-12.80273438 88.65722656 -12.80273438 88.65722656 -15.90625 88.6640625 C-17.01871094 88.66664062 -18.13117187 88.66921875 -19.27734375 88.671875 C-20.44394531 88.66414063 -21.61054687 88.65640625 -22.8125 88.6484375 C-23.97910156 88.65617187 -25.14570313 88.66390625 -26.34765625 88.671875 C-27.46011719 88.66929688 -28.57257812 88.66671875 -29.71875 88.6640625 C-30.74291016 88.66180664 -31.76707031 88.65955078 -32.82226562 88.65722656 C-35.3125 88.3984375 -35.3125 88.3984375 -37.3125 86.3984375 C-36.88613207 79.77981051 -33.9491574 73.11377699 -31.71484375 66.93359375 C-31.36431442 65.94996857 -31.0137851 64.96634338 -30.65263367 63.95291138 C-29.52341558 60.78710985 -28.38693837 57.62397371 -27.25 54.4609375 C-25.70239992 50.13614006 -24.15775173 45.8102909 -22.61328125 41.484375 C-22.23645203 40.43056137 -21.8596228 39.37674774 -21.47137451 38.29100037 C-19.36717029 32.39615542 -17.29638978 26.49235425 -15.29296875 20.5625 C-14.88248291 19.35070068 -14.47199707 18.13890137 -14.04907227 16.89038086 C-13.33008185 14.75299117 -12.61786347 12.61330633 -11.91381836 10.47094727 C-11.60452393 9.55369873 -11.29522949 8.6364502 -10.9765625 7.69140625 C-10.72342285 6.9233667 -10.4702832 6.15532715 -10.20947266 5.36401367 C-7.90052124 0.30430549 -5.39146659 0.01602786 0 0 Z M-5.3125 4.3984375 C-7.78744216 11.30638417 -10.25566773 18.21669349 -12.71832275 25.12902832 C-14.29234352 29.54475675 -15.87137532 33.95865273 -17.45458984 38.37109375 C-19.39741984 43.78597309 -21.33373115 49.20315095 -23.26663208 54.62158203 C-24.04749673 56.80695286 -24.83060059 58.99152487 -25.61593628 61.17529297 C-26.73161098 64.27885807 -27.8393069 67.3851658 -28.9453125 70.4921875 C-29.28547897 71.43276001 -29.62564545 72.37333252 -29.97612 73.34240723 C-30.28451309 74.21361206 -30.59290619 75.08481689 -30.91064453 75.98242188 C-31.18248566 76.74180054 -31.45432678 77.5011792 -31.73440552 78.28356934 C-32.48828297 80.67610275 -32.48828297 80.67610275 -32.3125 84.3984375 C-29.3425 84.3984375 -26.3725 84.3984375 -23.3125 84.3984375 C-22.9825 82.7484375 -22.6525 81.0984375 -22.3125 79.3984375 C-20.9925 79.3984375 -19.6725 79.3984375 -18.3125 79.3984375 C-18.6425 81.0484375 -18.9725 82.6984375 -19.3125 84.3984375 C-16.6725 84.3984375 -14.0325 84.3984375 -11.3125 84.3984375 C-9.6625 79.7784375 -8.0125 75.1584375 -6.3125 70.3984375 C-9.2825 70.3984375 -12.2525 70.3984375 -15.3125 70.3984375 C-15.6425 71.3884375 -15.9725 72.3784375 -16.3125 73.3984375 C-16.9725 73.3984375 -17.6325 73.3984375 -18.3125 73.3984375 C-17.9825 71.0884375 -17.6525 68.7784375 -17.3125 66.3984375 C-4.7725 66.3984375 7.7675 66.3984375 20.6875 66.3984375 C21.6775 69.6984375 22.6675 72.9984375 23.6875 76.3984375 C24.66368706 79.07391315 25.6552526 81.74408703 26.6875 84.3984375 C29.6575 84.3984375 32.6275 84.3984375 35.6875 84.3984375 C34.38478601 78.02505565 32.66009982 72.02827673 30.46484375 65.91015625 C30.15930069 65.04453568 29.85375763 64.1789151 29.53895569 63.2870636 C28.57253944 60.55158911 27.5991623 57.81866194 26.625 55.0859375 C25.64847132 52.33495248 24.67344372 49.58344884 23.70033264 46.83125305 C23.09714869 45.12650478 22.49180195 43.42251979 21.88401794 41.71940613 C21.61025833 40.9479274 21.33649872 40.17644867 21.05444336 39.3815918 C20.81398788 38.70702438 20.57353241 38.03245697 20.32579041 37.33744812 C19.67971053 35.37477451 19.16339289 33.40852401 18.6875 31.3984375 C19.6775 31.7284375 20.6675 32.0584375 21.6875 32.3984375 C22.73161316 34.49281311 22.73161316 34.49281311 23.68041992 37.28540039 C24.04056686 38.32640396 24.40071381 39.36740753 24.77177429 40.43995667 C25.15001846 41.5722319 25.52826263 42.70450714 25.91796875 43.87109375 C26.31325272 45.02387314 26.70853668 46.17665253 27.11579895 47.36436462 C28.37999978 51.05953208 29.62763351 54.76005744 30.875 58.4609375 C31.7274331 60.96195777 32.58093488 63.46261406 33.43554688 65.96289062 C35.5319659 72.10389794 37.6147978 78.24938759 39.6875 84.3984375 C42.3275 84.3984375 44.9675 84.3984375 47.6875 84.3984375 C47.08308371 78.26088384 45.27984349 72.87627073 43.1875 67.09375 C42.83541977 66.10442474 42.48333954 65.11509949 42.12059021 64.09579468 C40.98250806 60.90272519 39.83515636 57.71307684 38.6875 54.5234375 C37.90837602 52.34329884 37.129812 50.16295998 36.35180664 47.98242188 C34.47078919 42.71542488 32.58237683 37.45112426 30.69024658 32.18811035 C29.7934562 29.69321101 28.89798504 27.19784565 28.00341797 24.70214844 C25.57596208 17.93018773 23.14155253 11.16081129 20.6875 4.3984375 C18.0475 4.3984375 15.4075 4.3984375 12.6875 4.3984375 C13.50958468 9.11361284 14.88014236 13.63323395 16.25 18.2109375 C16.48396484 18.99919922 16.71792969 19.78746094 16.95898438 20.59960938 C17.53318404 22.53313886 18.11007333 24.46586927 18.6875 26.3984375 C17.6975 26.3984375 16.7075 26.3984375 15.6875 26.3984375 C15.51734375 25.73199219 15.3471875 25.06554687 15.171875 24.37890625 C13.37695361 17.55247649 11.17528769 11.00394275 8.6875 4.3984375 C4.0675 4.3984375 -0.5525 4.3984375 -5.3125 4.3984375 Z " fill="#0F0D0D" transform="translate(56.3125,19.6015625)"/>
<path d="M0 0 C4.62 0 9.24 0 14 0 C14 1.65 14 3.3 14 5 C17.96 5 21.92 5 26 5 C25.67 6.32 25.34 7.64 25 9 C21.37 9 17.74 9 14 9 C13.67 10.65 13.34 12.3 13 14 C11.68 14 10.36 14 9 14 C9 28.85 9 43.7 9 59 C9.99 59 10.98 59 12 59 C12 62.3 12 65.6 12 69 C11.01 69 10.02 69 9 69 C9 83.85 9 98.7 9 114 C10.65 114.33 12.3 114.66 14 115 C14 116.32 14 117.64 14 119 C28.85 119 43.7 119 59 119 C59 118.01 59 117.02 59 116 C62.3 116 65.6 116 69 116 C69 116.99 69 117.98 69 119 C78.24 119 87.48 119 97 119 C97.33 120.32 97.66 121.64 98 123 C88.76 123 79.52 123 70 123 C69.505 124.98 69.505 124.98 69 127 C65.7 127 62.4 127 59 127 C58.67 125.68 58.34 124.36 58 123 C43.48 123 28.96 123 14 123 C14 124.65 14 126.3 14 128 C9.38 128 4.76 128 0 128 C0 123.38 0 118.76 0 114 C1.65 114 3.3 114 5 114 C5 99.48 5 84.96 5 70 C3.68 69.67 2.36 69.34 1 69 C1 65.7 1 62.4 1 59 C2.98 58.505 2.98 58.505 5 58 C5 43.48 5 28.96 5 14 C3.35 14 1.7 14 0 14 C0 9.38 0 4.76 0 0 Z " fill="#0C0A06" transform="translate(0,0)"/>
<path d="M0 0 C4.62 0 9.24 0 14 0 C14 4.62 14 9.24 14 14 C12.35 14 10.7 14 9 14 C9 28.52 9 43.04 9 58 C10.98 58.495 10.98 58.495 13 59 C13 62.3 13 65.6 13 69 C11.68 69.33 10.36 69.66 9 70 C9 84.52 9 99.04 9 114 C10.65 114 12.3 114 14 114 C14 118.62 14 123.24 14 128 C9.38 128 4.76 128 0 128 C0 126.35 0 124.7 0 123 C-3.63 123 -7.26 123 -11 123 C-10.505 121.02 -10.505 121.02 -10 119 C-6.7 119 -3.4 119 0 119 C0.33 117.35 0.66 115.7 1 114 C2.32 114 3.64 114 5 114 C5 99.15 5 84.3 5 69 C4.01 69 3.02 69 2 69 C2 65.7 2 62.4 2 59 C2.99 59 3.98 59 5 59 C5 44.15 5 29.3 5 14 C3.35 13.67 1.7 13.34 0 13 C0 11.68 0 10.36 0 9 C-14.85 9 -29.7 9 -45 9 C-45 9.99 -45 10.98 -45 12 C-48.3 12 -51.6 12 -55 12 C-55 11.01 -55 10.02 -55 9 C-63.91 9 -72.82 9 -82 9 C-82.33 7.68 -82.66 6.36 -83 5 C-74.09 5 -65.18 5 -56 5 C-55.67 3.68 -55.34 2.36 -55 1 C-51.7 1 -48.4 1 -45 1 C-44.505 2.98 -44.505 2.98 -44 5 C-29.48 5 -14.96 5 0 5 C0 3.35 0 1.7 0 0 Z " fill="#0C0B07" transform="translate(114,0)"/>
<path d="M0 0 C0.99 0.33 1.98 0.66 3 1 C4.19458031 3.68405066 5.19486869 6.2777942 6.13671875 9.05078125 C6.42102249 9.86113327 6.70532623 10.67148529 6.99824524 11.50639343 C7.59793509 13.22358996 8.19187215 14.94280459 8.78051758 16.66381836 C9.68179062 19.29582676 10.60198839 21.92060631 11.52539062 24.54492188 C12.1053028 26.21314715 12.6841153 27.8817552 13.26171875 29.55078125 C13.53666672 30.33632889 13.81161469 31.12187653 14.09489441 31.93122864 C14.34548111 32.66846664 14.59606781 33.40570465 14.85424805 34.1652832 C15.07614304 34.81068558 15.29803802 35.45608795 15.5266571 36.12104797 C16 38 16 38 16 42 C6.1 42 -3.8 42 -14 42 C-12.87490771 32.99926171 -12.87490771 32.99926171 -11.80078125 30.07836914 C-11.44536255 29.09308983 -11.44536255 29.09308983 -11.08276367 28.08790588 C-10.82857666 27.4104985 -10.57438965 26.73309113 -10.3125 26.03515625 C-10.04993408 25.31637802 -9.78736816 24.59759979 -9.5168457 23.85704041 C-8.96604086 22.35399998 -8.41122356 20.85242429 -7.85253906 19.35229492 C-6.99433797 17.0472926 -6.14852775 14.73802819 -5.3046875 12.42773438 C-4.76633075 10.96328203 -4.22729302 9.4990798 -3.6875 8.03515625 C-3.30621948 6.99779076 -3.30621948 6.99779076 -2.91723633 5.93946838 C-1.11726225 1.11726225 -1.11726225 1.11726225 0 0 Z " fill="#0A090D" transform="translate(57,35)"/>
<path d="M0 0 C2.64 0 5.28 0 8 0 C10.47568624 6.90767747 12.94316855 13.81825829 15.40582275 20.73059082 C16.97984352 25.14631925 18.55887532 29.56021523 20.14208984 33.97265625 C22.08491984 39.38753559 24.02123115 44.80471345 25.95413208 50.22314453 C26.73499673 52.40851536 27.51810059 54.59308737 28.30343628 56.77685547 C29.41911098 59.88042057 30.5268069 62.9867283 31.6328125 66.09375 C31.97297897 67.03432251 32.31314545 67.97489502 32.66362 68.94396973 C33.12620964 70.25077698 33.12620964 70.25077698 33.59814453 71.58398438 C33.86998566 72.34336304 34.14182678 73.1027417 34.42190552 73.88513184 C35 76 35 76 35 80 C32.36 80 29.72 80 27 80 C24.43221218 72.63251767 21.86920582 65.26338498 19.30957031 57.89306641 C18.4376337 55.38421672 17.56458948 52.8757517 16.69042969 50.36767578 C15.43655996 46.76955301 14.18663633 43.17008083 12.9375 39.5703125 C12.34690796 37.87964157 12.34690796 37.87964157 11.74438477 36.15481567 C11.38401123 35.11388763 11.0236377 34.07295959 10.65234375 33.00048828 C10.33257568 32.08115509 10.01280762 31.1618219 9.68334961 30.21463013 C9 28 9 28 9 26 C8.01 26 7.02 26 6 26 C5.90203125 25.26136719 5.8040625 24.52273437 5.703125 23.76171875 C4.74156481 17.23803021 3.26705694 11.39732035 0.8046875 5.27734375 C0 3 0 3 0 0 Z " fill="#BCA9E8" transform="translate(69,24)"/>
<path d="M0 0 C0.66 0 1.32 0 2 0 C2.53603819 1.39006515 3.05317473 2.78742649 3.5625 4.1875 C3.85253906 4.96480469 4.14257812 5.74210937 4.44140625 6.54296875 C5.63143137 11.77741493 3.16739128 16.80499385 1.5 21.75 C1.27441406 22.43449219 1.04882812 23.11898437 0.81640625 23.82421875 C-0.87327939 28.87327939 -0.87327939 28.87327939 -2 30 C-4.67058851 30.14115161 -7.32432238 30.04247107 -10 30 C-7.98086853 23.0449018 -5.73400143 16.19969087 -3.3125 9.375 C-2.83200195 8.01181641 -2.83200195 8.01181641 -2.34179688 6.62109375 C-1.56326686 4.41332207 -0.78264756 2.20631463 0 0 Z " fill="#9680D5" transform="translate(57,44)"/>
<path d="M0 0 C2.97 0 5.94 0 9 0 C7.35 4.62 5.7 9.24 4 14 C1.36 14 -1.28 14 -4 14 C-3.67 12.35 -3.34 10.7 -3 9 C-3.99 8.67 -4.98 8.34 -6 8 C-5.34 8 -4.68 8 -4 8 C-3.87625 7.360625 -3.7525 6.72125 -3.625 6.0625 C-3.41875 5.381875 -3.2125 4.70125 -3 4 C-2.34 3.67 -1.68 3.34 -1 3 C-0.67 2.01 -0.34 1.02 0 0 Z " fill="#9C84DC" transform="translate(41,90)"/>
<path d="M0 0 C3.3 0 6.6 0 10 0 C10 0.66 10 1.32 10 2 C24.19 2 38.38 2 53 2 C53.33 1.34 53.66 0.68 54 0 C54 1.32 54 2.64 54 4 C52.93458984 4.07347656 52.93458984 4.07347656 51.84765625 4.1484375 C50.92855469 4.22320312 50.00945312 4.29796875 49.0625 4.375 C47.68771484 4.47941406 47.68771484 4.47941406 46.28515625 4.5859375 C45.53105469 4.72257812 44.77695313 4.85921875 44 5 C43.67 5.66 43.34 6.32 43 7 C41.35 7 39.7 7 38 7 C37.505 6.01 37.505 6.01 37 5 C23.14 4.505 23.14 4.505 9 4 C9 3.01 9 2.02 9 1 C6.03 1 3.06 1 0 1 C0 0.67 0 0.34 0 0 Z " fill="#FBCD63" transform="translate(60,115)"/>
<path d="M0 0 C1.32 0.33 2.64 0.66 4 1 C3.67 1.33 3.34 1.66 3 2 C2.87814857 3.34983748 2.82233169 4.70574701 2.79467773 6.06079102 C2.77473251 6.92160782 2.75478729 7.78242462 2.73423767 8.66932678 C2.71752518 9.60473801 2.70081268 10.54014923 2.68359375 11.50390625 C2.66281265 12.45692123 2.64203156 13.40993622 2.62062073 14.39183044 C2.55501823 17.4486441 2.49619082 20.50554656 2.4375 23.5625 C2.39432494 25.62956663 2.35071099 27.69662414 2.30664062 29.76367188 C2.19932599 34.84235595 2.09808909 39.9211297 2 45 C1.34 45 0.68 45 0 45 C0 30.15 0 15.3 0 0 Z " fill="#FDCF63" transform="translate(9,14)"/>
<path d="M0 0 C0.66 0 1.32 0 2 0 C2.67057887 1.7902061 3.3363469 3.58221489 4 5.375 C4.556875 6.87160156 4.556875 6.87160156 5.125 8.3984375 C6 11 6 11 6 13 C3.03 13 0.06 13 -3 13 C-2.45144652 8.428721 -1.58255197 4.32564205 0 0 Z " fill="#E1C66E" transform="translate(63,61)"/>
<path d="M0 0 C1.98 0 3.96 0 6 0 C6 1.98 6 3.96 6 6 C4.02 6 2.04 6 0 6 C0 4.02 0 2.04 0 0 Z " fill="#6F6571" transform="translate(118,118)"/>
<path d="M0 0 C1.98 0 3.96 0 6 0 C6 1.98 6 3.96 6 6 C4.02 6 2.04 6 0 6 C0 4.02 0 2.04 0 0 Z " fill="#6F6571" transform="translate(4,118)"/>
<path d="M0 0 C1.98 0 3.96 0 6 0 C6 1.98 6 3.96 6 6 C4.02 6 2.04 6 0 6 C0 4.02 0 2.04 0 0 Z " fill="#6F6571" transform="translate(118,4)"/>
<path d="M0 0 C1.98 0 3.96 0 6 0 C6 1.98 6 3.96 6 6 C4.02 6 2.04 6 0 6 C0 4.02 0 2.04 0 0 Z " fill="#6F6571" transform="translate(4,4)"/>
</svg>
