<?xml version="1.0" standalone="no"?>
<!DOCTYPE svg PUBLIC "-//W3C//DTD SVG 20010904//EN"
 "http://www.w3.org/TR/2001/REC-SVG-20010904/DTD/svg10.dtd">
<svg version="1.0" xmlns="http://www.w3.org/2000/svg"
 width="512.000000pt" height="512.000000pt" viewBox="0 0 512.000000 512.000000"
 preserveAspectRatio="xMidYMid meet">
<metadata>
Created by potrace 1.16, written by Peter Selinger 2001-2019
</metadata>
<g transform="translate(0.000000,512.000000) scale(0.100000,-0.100000)"
fill="#000000" stroke="none">
<path d="M1687 5090 c-74 -65 -127 -206 -127 -339 0 -127 32 -224 101 -312 27
-34 29 -44 29 -121 l0 -85 -88 87 c-127 126 -273 200 -392 200 -70 0 -84 -17
-77 -97 15 -157 136 -347 293 -459 73 -52 172 -100 225 -109 l39 -7 0 -155 0
-154 -37 43 c-124 144 -309 248 -443 248 -79 0 -97 -42 -65 -163 57 -221 277
-442 494 -498 l51 -13 0 -43 0 -43 -277 0 c-312 0 -330 -3 -365 -70 -23 -45
-25 -177 -3 -223 29 -59 58 -72 173 -75 l102 -4 0 -599 0 -599 -634 0 c-564 0
-636 -2 -650 -16 -14 -14 -16 -94 -16 -738 0 -548 3 -725 12 -734 17 -17 5039
-17 5056 0 9 9 12 186 12 734 0 644 -2 724 -16 738 -14 14 -88 16 -665 16
l-649 0 0 600 0 600 93 0 c105 0 142 16 177 72 27 45 28 178 2 228 -35 67 -53
70 -364 70 l-278 0 0 43 0 43 53 13 c248 62 506 361 507 588 0 55 -19 73 -79
73 -131 0 -288 -84 -418 -224 l-63 -67 0 155 0 154 41 7 c23 4 80 27 128 50
202 102 367 322 388 516 8 75 -10 99 -71 99 -124 0 -263 -69 -393 -195 l-93
-90 0 87 c0 48 4 89 9 92 23 15 81 118 100 180 23 75 28 208 11 283 -27 117
-119 243 -178 243 -38 0 -79 -34 -121 -98 -107 -167 -99 -414 20 -571 38 -50
39 -53 39 -137 l0 -85 -62 67 c-120 128 -267 210 -397 221 -85 7 -101 -5 -101
-80 1 -157 142 -371 323 -491 80 -52 179 -96 217 -96 19 0 20 -8 20 -154 l0
-153 -87 87 c-95 93 -182 149 -285 181 -74 23 -151 25 -172 3 -37 -37 -4 -194
66 -312 18 -31 74 -97 123 -147 97 -97 198 -160 303 -186 l52 -13 0 -43 0 -43
-277 0 c-245 0 -282 -2 -313 -18 -51 -25 -70 -70 -70 -167 0 -145 42 -185 192
-185 l88 0 0 -600 0 -600 -355 0 -355 0 0 600 0 600 85 0 c156 0 195 36 195
183 0 101 -14 137 -63 167 -30 19 -52 20 -314 20 l-283 0 0 43 0 44 52 11
c110 26 230 102 330 211 76 82 121 155 153 248 27 74 33 171 13 191 -20 20
-117 14 -191 -13 -104 -36 -172 -81 -269 -176 l-88 -86 0 152 0 152 50 11
c244 56 509 357 510 579 0 66 -16 83 -78 83 -119 0 -270 -78 -399 -205 l-83
-82 0 83 c0 82 1 85 40 136 73 96 106 232 90 366 -15 112 -47 188 -112 258
-51 55 -90 59 -141 14z m105 -156 c39 -72 54 -167 39 -251 -12 -68 -56 -163
-78 -170 -15 -5 -58 69 -73 127 -15 58 -16 163 0 220 15 58 58 132 73 127 7
-2 24 -26 39 -53z m1591 -5 c36 -71 50 -161 37 -241 -11 -72 -58 -173 -80
-173 -23 0 -68 93 -80 168 -14 80 -1 176 32 241 41 83 51 83 91 5z m-2032
-556 c117 -53 245 -182 306 -308 42 -88 43 -110 6 -101 -123 29 -310 190 -376
325 -21 40 -37 84 -37 97 0 20 3 22 29 14 15 -4 48 -17 72 -27z m904 15 c-17
-58 -76 -168 -118 -219 -75 -92 -207 -182 -301 -205 -28 -7 -29 -6 -22 22 40
164 212 342 395 409 50 19 53 18 46 -7z m690 -22 c130 -61 245 -178 306 -313
37 -81 38 -97 2 -88 -171 41 -363 236 -418 423 -6 21 -4 23 17 17 12 -4 55
-21 93 -39z m861 -70 c-75 -152 -244 -300 -378 -332 -37 -8 -37 12 1 93 74
156 239 304 381 343 38 10 37 -21 -4 -104z m-2462 -610 c115 -48 244 -174 307
-300 48 -96 51 -121 12 -111 -127 31 -310 189 -376 324 -21 40 -37 84 -37 97
0 20 3 22 28 15 15 -5 44 -16 66 -25z m911 12 c-55 -187 -247 -382 -419 -424
-28 -7 -29 -6 -22 22 23 94 115 229 205 301 71 56 188 117 234 122 5 1 5 -9 2
-21z m692 -20 c125 -61 245 -185 308 -319 34 -73 33 -93 -2 -85 -91 22 -219
110 -300 207 -41 50 -103 165 -118 217 -6 21 -4 22 22 16 15 -3 56 -20 90 -36z
m859 -72 c-74 -150 -247 -301 -378 -332 -40 -9 -37 16 12 112 69 139 209 267
340 313 l55 20 3 -21 c2 -11 -12 -53 -32 -92z m-2106 -721 l0 -75 -277 2 -278
3 -3 59 c-2 32 -1 65 2 72 4 11 58 14 281 14 l275 0 0 -75z m655 0 l0 -70
-277 -3 -278 -2 0 75 0 75 278 -2 277 -3 0 -70z m935 0 l0 -75 -277 2 -278 3
-3 59 c-2 32 -1 65 2 72 4 11 58 14 281 14 l275 0 0 -75z m655 0 l0 -70 -277
-3 -278 -2 0 75 0 75 278 -2 277 -3 0 -70z m-2245 -1002 c0 -755 1 -828 17
-845 20 -22 46 -23 67 -2 14 14 16 104 16 845 l0 829 140 0 140 0 0 -110 0
-110 -62 0 c-76 0 -112 -16 -116 -51 -4 -38 15 -48 98 -51 l75 -3 3 -107 3
-108 -75 0 c-81 0 -106 -13 -106 -54 0 -37 19 -46 102 -46 l78 0 0 -110 0
-110 -71 0 c-86 0 -109 -11 -109 -50 0 -39 23 -50 109 -50 l71 0 0 -110 0
-110 -78 0 c-83 0 -102 -9 -102 -46 0 -41 25 -54 106 -54 l75 0 -3 -107 -3
-108 -75 -3 c-81 -3 -100 -12 -100 -48 0 -37 36 -54 113 -54 l69 0 -4 -217
c-3 -210 -4 -220 -29 -273 -37 -80 -81 -125 -157 -162 -58 -29 -77 -33 -142
-33 -167 1 -292 112 -320 281 -11 66 -14 1987 -3 1997 3 4 66 7 140 7 l133 0
0 -827z m1590 -2 c0 -741 2 -831 16 -845 20 -20 48 -20 68 0 14 14 16 104 16
845 l0 830 138 -3 137 -3 3 -107 3 -108 -63 0 c-85 0 -107 -8 -115 -38 -11
-45 7 -57 93 -62 l79 -5 3 -107 3 -108 -71 0 c-86 0 -110 -11 -110 -49 0 -41
17 -50 100 -53 l75 -3 3 -107 3 -108 -79 0 c-85 0 -102 -8 -102 -50 0 -42 17
-50 102 -50 l79 0 -3 -107 -3 -108 -75 -3 c-83 -3 -100 -12 -100 -53 0 -38 24
-49 110 -49 l71 0 -3 -107 -3 -108 -75 -3 c-84 -3 -100 -12 -100 -53 0 -37 28
-49 116 -49 l64 0 0 -178 c0 -259 -17 -329 -101 -413 -62 -62 -138 -93 -229
-94 -65 0 -84 4 -142 33 -76 37 -120 82 -157 162 l-26 55 -3 1018 -2 1017 140
0 140 0 0 -829z m-1970 -803 c0 -172 5 -344 10 -383 28 -191 162 -331 352
-366 214 -39 434 107 482 321 13 55 16 136 16 404 l0 336 365 0 365 0 0 -328
c0 -195 4 -352 11 -388 16 -87 55 -162 118 -225 250 -249 671 -108 722 244 5
34 9 205 9 380 l0 317 615 0 615 0 -2 -642 -3 -643 -2435 0 -2435 0 -3 643 -2
642 600 0 600 0 0 -312z"/>
<path d="M362 1288 c-9 -9 -12 -143 -12 -539 0 -466 2 -529 16 -543 14 -14 67
-16 439 -16 459 0 455 0 455 54 0 46 -2 46 -417 46 l-393 0 0 489 c0 432 -2
491 -16 505 -18 19 -55 21 -72 4z"/>
<path d="M4686 1284 c-14 -14 -16 -73 -16 -505 l0 -489 -443 0 c-331 0 -446
-3 -455 -12 -19 -19 -15 -66 7 -78 13 -6 185 -10 490 -10 414 0 471 2 485 16
14 14 16 77 16 543 0 396 -3 530 -12 539 -17 17 -54 15 -72 -4z"/>
</g>
</svg>
