<svg version="1.1" id="Layer_1" xmlns="http://www.w3.org/2000/svg" xmlns:xlink="http://www.w3.org/1999/xlink" x="0px" y="0px"
	 width="100%" viewBox="0 0 442 395" enable-background="new 0 0 442 395" xml:space="preserve">
<path fill="#F7F7F7" opacity="1.000000" stroke="none" 
	d="
M304.000000,396.000000 
	C204.000015,396.000000 104.499992,395.977417 5.000149,396.095551 
	C1.576118,396.099640 0.901949,395.423889 0.904937,391.999939 
	C1.017482,263.000061 1.017469,134.000046 0.904954,5.000166 
	C0.901968,1.576484 1.576035,0.902502 4.999989,0.905117 
	C149.666550,1.015600 294.333221,1.015593 438.999817,0.905146 
	C442.423279,0.902532 443.098083,1.575821 443.095093,4.999947 
	C442.982544,133.999832 442.982574,262.999847 443.095062,391.999725 
	C443.098053,395.423218 442.425903,396.109314 438.999847,396.098022 
	C394.166931,395.950562 349.333405,396.000000 304.000000,396.000000 
z"/>
<path fill="#FFCE01" opacity="1.000000" stroke="none" 
	d="
M204.212982,359.837830 
	C175.181595,358.824493 149.011108,349.259735 125.536682,332.840820 
	C87.833282,306.469696 65.304329,270.406982 57.817978,224.794708 
	C45.334999,148.739410 93.494606,71.048141 167.530685,48.459888 
	C252.002777,22.687639 338.499390,66.440079 367.622528,149.764404 
	C372.418793,163.486893 374.963257,177.707642 375.698730,192.654022 
	C372.457367,194.110764 371.212494,191.374252 369.592773,189.769638 
	C355.341095,175.651398 341.186371,161.435379 326.996277,147.254929 
	C325.355499,145.615250 323.771118,143.914261 321.650696,142.269897 
	C321.163727,141.925674 320.975311,141.776138 320.518921,141.381058 
	C319.728851,140.609726 319.194641,140.096725 318.347107,139.350800 
	C312.111511,132.112656 304.371368,129.448532 295.411591,129.449814 
	C287.585876,129.450928 279.755402,129.729950 271.558350,129.186432 
	C266.753296,127.233719 264.260681,123.128586 260.862946,120.066078 
	C257.804840,117.309715 255.128204,114.146576 251.678818,111.287445 
	C251.192932,110.952019 251.004791,110.807838 250.544098,110.436378 
	C249.717560,109.741669 249.118408,109.350403 248.048096,109.023445 
	C229.203949,108.093338 210.729813,108.728004 192.260406,108.586792 
	C188.837708,108.560616 187.422226,110.855286 185.970886,113.424782 
	C183.124283,118.464569 181.599319,124.267151 176.938080,128.713684 
	C165.968567,130.500320 155.342514,129.431381 144.744614,129.577484 
	C141.767273,129.618530 138.773941,129.455414 135.335754,129.461624 
	C129.523849,129.627472 124.272507,130.330933 119.329590,132.577850 
	C108.372772,137.558502 102.754341,146.132721 102.559273,158.099976 
	C102.331482,172.075104 102.670570,186.055130 102.358704,200.468002 
	C102.279305,201.196594 102.244286,201.489120 102.122238,202.216736 
	C100.782852,208.193253 101.540176,213.811829 101.469124,219.390991 
	C101.362137,227.791840 101.319374,236.196945 101.614273,245.006119 
	C101.849915,245.934006 101.973358,246.458115 102.173882,247.356445 
	C102.378883,248.206619 102.490005,248.686508 102.690842,249.507904 
	C102.951271,250.516739 103.048958,251.197464 103.207909,252.201889 
	C103.389313,253.163086 103.479897,253.809784 103.978729,254.672699 
	C106.742912,260.178314 110.344749,264.562500 115.239792,268.314697 
	C115.893867,269.083160 116.316147,269.603638 117.049301,270.297791 
	C117.455688,270.691437 117.613770,270.855560 117.990341,271.285400 
	C119.658409,273.607208 121.541603,275.263184 123.303589,277.026245 
	C148.838379,302.576721 174.391602,328.108856 199.908401,353.677277 
	C201.637299,355.409698 203.852371,356.834473 204.212982,359.837830 
z"/>
<path fill="#FFA301" opacity="1.000000" stroke="none" 
	d="
M204.420425,360.351074 
	C202.763077,358.654236 201.555115,357.064301 200.156998,355.664307 
	C173.675888,329.147675 147.165466,302.660309 120.693115,276.134979 
	C119.323196,274.762299 117.427750,273.717926 117.189751,271.133423 
	C119.851219,269.655457 122.016006,271.430237 124.742630,271.996307 
	C125.582710,272.240875 126.071243,272.355408 126.952789,272.472717 
	C130.313370,272.594055 133.286240,272.500610 136.683273,272.487122 
	C137.973190,272.558746 138.840332,272.570190 140.157806,272.562256 
	C189.558640,272.112152 238.510605,272.483948 287.461914,272.362579 
	C289.293488,272.358063 291.125916,272.325256 292.956512,272.367401 
	C309.901245,272.757477 320.774597,266.838959 322.568420,246.496262 
	C322.664825,243.070328 324.252533,240.747498 325.894348,238.415497 
	C333.592896,227.480286 337.160553,215.212265 337.573212,201.540558 
	C337.140228,188.351364 334.140625,176.328735 326.982117,165.525162 
	C325.252319,162.914612 323.309784,160.422333 321.970154,157.103790 
	C321.721588,151.688263 320.773834,146.738617 320.725403,141.374451 
	C323.289124,141.023102 324.361786,142.927414 325.729675,144.290604 
	C340.795532,159.304611 355.818878,174.361221 370.878448,189.381516 
	C372.157928,190.657684 373.614929,191.755905 375.306915,193.008133 
	C377.495453,220.584549 372.145081,246.780777 359.807953,271.259186 
	C337.622864,315.277130 302.442719,343.771667 254.711014,356.361633 
	C238.378677,360.669556 221.664261,362.010315 204.420425,360.351074 
z"/>
<path fill="#28488F" opacity="1.000000" stroke="none" 
	d="
M320.978577,141.018860 
	C322.808014,145.893127 323.698242,150.910629 323.135986,156.583374 
	C320.409424,157.604919 319.090210,155.578873 317.660645,154.103882 
	C293.933319,129.622711 251.931763,127.823189 224.908508,153.939026 
	C213.572830,164.894073 207.188721,178.732544 205.557266,194.594650 
	C205.171204,198.348068 206.770294,199.568390 210.381210,199.639572 
	C217.343552,199.776855 224.344116,198.853363 231.603058,200.446823 
	C233.133194,201.788513 233.178406,203.306213 233.345963,204.800323 
	C235.502655,224.030777 250.621140,238.845413 269.979706,239.354660 
	C288.128937,239.832108 303.686005,228.614471 308.628998,209.948776 
	C309.465271,206.790817 308.832825,203.190033 311.676208,200.278183 
	C320.718689,199.053162 329.383606,198.602402 338.364990,200.652039 
	C339.240784,215.188263 334.722290,227.850494 326.919067,239.504364 
	C325.820496,241.145065 324.668396,242.749924 323.343933,244.693329 
	C322.983124,247.568451 321.339813,249.240784 319.621033,250.839020 
	C286.770142,281.386536 240.915024,273.250793 217.943619,244.975723 
	C209.431580,234.498398 204.744171,222.775269 202.690125,209.732208 
	C201.573120,202.639252 201.501022,202.471085 194.184769,202.460068 
	C185.694031,202.447281 177.201294,202.559586 168.713409,202.412338 
	C164.869415,202.345657 163.366013,203.787933 163.410538,207.672348 
	C163.538345,218.825119 163.597366,229.982941 163.406723,241.134552 
	C163.263535,249.510025 160.759995,257.204529 155.403076,263.766632 
	C151.762787,268.225891 147.453995,271.815399 141.192169,273.064209 
	C139.800446,273.493103 138.751862,273.479553 137.338287,273.627808 
	C133.600754,273.638763 130.235779,273.546570 126.425827,273.341034 
	C125.788780,273.301483 125.596687,273.375336 125.169128,273.249542 
	C122.606544,272.328796 120.279427,271.607635 117.593887,270.833191 
	C117.235458,270.779877 117.209511,270.804688 117.200668,270.820068 
	C116.604507,270.571564 115.944725,270.508545 115.249161,269.887054 
	C110.019005,265.828705 105.541275,261.536285 103.098961,255.131500 
	C102.706741,254.484131 102.494644,254.112823 102.333664,253.332947 
	C102.056229,252.412689 101.910309,251.802292 101.795441,250.877167 
	C101.860825,250.164948 101.746666,249.812332 101.347153,249.256348 
	C101.108322,248.591507 101.027390,248.168503 100.917755,247.422638 
	C100.051491,232.298492 100.720261,217.485016 100.475807,202.187347 
	C100.422508,201.696213 100.483162,201.293060 100.647621,201.172638 
	C102.875885,199.165909 105.451180,199.450256 107.923668,199.444229 
	C122.907104,199.407715 137.890732,199.461060 152.874084,199.411774 
	C159.039627,199.391495 159.389175,199.031525 159.414062,192.913315 
	C159.458740,181.925583 159.452805,170.937485 159.420395,159.949677 
	C159.376572,145.092590 152.808456,135.997208 138.658020,131.117630 
	C137.247894,130.631363 135.748535,130.352905 134.414398,128.905518 
	C148.193680,128.397278 162.143753,128.295990 176.556274,128.102905 
	C178.731750,126.869781 180.613663,126.314339 182.675797,126.317818 
	C207.666351,126.359909 232.657684,126.044273 258.136566,126.494865 
	C262.184875,126.378166 265.787689,125.799858 269.581207,127.784195 
	C279.287781,128.117630 288.579498,128.278381 297.870697,128.254547 
	C306.768188,128.231735 314.013336,131.401260 319.559998,138.889206 
	C320.413239,139.405731 320.472015,140.016327 320.803284,140.815903 
	C320.980225,141.053665 320.999237,141.017502 320.978577,141.018860 
z"/>
<path fill="#2864F0" opacity="1.000000" stroke="none" 
	d="
M133.800201,128.411453 
	C151.742203,131.111938 162.139664,144.927094 161.200851,161.599625 
	C160.556900,173.035675 160.929367,184.540283 161.159897,196.007965 
	C161.238083,199.897476 160.151489,201.134171 156.144241,201.089417 
	C138.023682,200.886978 119.899483,201.010468 101.294327,201.034393 
	C100.775749,186.633377 100.380508,172.204239 100.794594,157.798355 
	C101.304054,140.074112 114.661163,128.290421 133.800201,128.411453 
z"/>
<path fill="#1C3B6B" opacity="1.000000" stroke="none" 
	d="
M259.250580,127.681900 
	C232.008560,128.001526 204.981186,128.008438 177.486267,128.013214 
	C180.003677,121.895332 183.020844,115.794952 185.953201,109.654076 
	C186.790512,107.900642 187.633896,106.726654 189.949615,106.739212 
	C209.100708,106.843071 228.252548,106.802574 247.404068,106.846779 
	C247.996094,106.848145 248.587097,107.294968 249.518204,107.787262 
	C250.412689,108.405640 250.471741,109.021591 250.781586,109.844727 
	C250.925110,110.106163 250.970001,110.020950 250.926926,110.042480 
	C255.105270,115.157509 258.145782,120.836609 259.250580,127.681900 
z"/>
<path fill="#FCA402" opacity="1.000000" stroke="none" 
	d="
M259.485535,128.078445 
	C256.338257,122.258827 253.640594,116.523033 250.913391,110.425613 
	C254.156784,110.265022 255.459503,113.155693 257.429199,115.031860 
	C261.639923,119.042641 265.629211,123.285927 269.852753,127.735779 
	C266.642578,128.079132 263.288849,128.120697 259.485535,128.078445 
z"/>
<path fill="#818464" opacity="1.000000" stroke="none" 
	d="
M100.266998,202.094391 
	C101.694496,209.394943 100.775581,217.147949 100.962074,224.873459 
	C101.133263,231.964661 101.019562,239.062744 100.960205,246.628784 
	C99.870422,246.011108 100.020630,244.632416 100.022041,243.326736 
	C100.036728,229.715317 100.077766,216.103943 100.266998,202.094391 
z"/>
<path fill="#FFA301" opacity="1.000000" stroke="none" 
	d="
M320.971863,140.740417 
	C320.637451,140.584961 320.294708,140.116257 319.899841,139.350739 
	C320.219666,139.511673 320.591553,139.969421 320.971863,140.740417 
z"/>
<path fill="#FCA402" opacity="1.000000" stroke="none" 
	d="
M250.937500,109.787193 
	C250.594360,109.621727 250.263596,109.137306 249.895340,108.346649 
	C250.221863,108.516350 250.585876,108.992287 250.937500,109.787193 
z"/>
<path fill="#324F8B" opacity="1.000000" stroke="none" 
	d="
M102.178001,253.281509 
	C102.475471,253.435638 102.748810,253.848190 103.048553,254.515900 
	C102.767929,254.360687 102.460899,253.950317 102.178001,253.281509 
z"/>
<path fill="#FFA301" opacity="1.000000" stroke="none" 
	d="
M115.228645,269.917725 
	C115.696777,269.830841 116.275398,270.069214 117.022919,270.571503 
	C116.574257,270.637939 115.956696,270.440460 115.228645,269.917725 
z"/>
<path fill="#324F8B" opacity="1.000000" stroke="none" 
	d="
M101.158432,249.316345 
	C101.397781,249.334045 101.606316,249.653595 101.820671,250.267776 
	C101.593529,250.247665 101.360573,249.932938 101.158432,249.316345 
z"/>
<path fill="#1D3C6A" opacity="1.000000" stroke="none" 
	d="
M139.709259,273.159882 
	C155.881317,266.510406 162.255463,254.190186 162.026459,237.632996 
	C161.879105,226.978851 162.153198,216.317566 161.916992,205.666611 
	C161.832031,201.835922 163.160049,200.844086 166.806824,200.924835 
	C176.625687,201.142258 186.452530,200.997498 196.276215,200.999283 
	C203.419266,201.000580 203.242294,201.038239 204.045853,208.549469 
	C204.805801,215.653061 206.473251,222.615128 209.591202,229.087341 
	C220.161118,251.028091 237.545319,264.099335 261.554962,267.955994 
	C281.145050,271.102753 298.617157,265.867554 314.068512,253.507019 
	C317.188599,251.011063 320.362793,248.629272 322.893188,245.147888 
	C325.148743,262.136566 314.717163,273.800110 297.174530,273.813812 
	C245.111343,273.854523 193.048111,273.817688 140.521881,273.770630 
	C139.854996,273.617157 139.651138,273.504242 139.709259,273.159882 
z"/>
<path fill="#2864EF" opacity="1.000000" stroke="none" 
	d="
M338.764038,200.546936 
	C329.800446,200.980942 320.897461,200.980576 311.239990,200.715027 
	C308.624146,195.143295 308.244720,189.473114 305.731934,184.266006 
	C298.698090,169.690155 282.011200,160.196198 264.324768,163.435104 
	C248.144684,166.398178 235.406128,179.922867 233.370667,196.848511 
	C233.251602,197.838455 233.200760,198.836533 232.332642,200.328400 
	C224.013412,200.918015 216.191025,200.807007 208.381058,201.067719 
	C204.842026,201.185837 203.685760,199.988052 203.948120,196.508392 
	C205.003021,182.517532 209.827896,169.996765 218.512878,159.035614 
	C241.294739,130.283051 282.950562,125.405899 311.787292,146.985352 
	C315.621307,149.854431 318.900299,153.465134 322.737030,156.883499 
	C332.651093,169.799362 338.782135,183.840317 338.764038,200.546936 
z"/>
<path fill="#696565" opacity="1.000000" stroke="none" 
	d="
M139.651169,272.961304 
	C139.971252,272.928436 140.049301,273.325562 140.054077,273.527832 
	C139.280960,273.802246 138.503036,273.874420 137.345428,273.838745 
	C137.754196,273.485352 138.542648,273.239746 139.651169,272.961304 
z"/>
<path fill="#696565" opacity="1.000000" stroke="none" 
	d="
M125.081253,273.194244 
	C125.173454,272.921509 125.420074,272.906647 125.827194,273.116516 
	C125.980873,273.227661 125.627663,273.437500 125.627663,273.437500 
	C125.627663,273.437500 125.228836,273.338562 125.081253,273.194244 
z"/>
<path fill="#15274D" opacity="1.000000" stroke="none" 
	d="
M311.039856,200.943863 
	C310.984711,222.310074 294.683655,240.339828 271.540039,240.823425 
	C249.643250,241.280960 231.177109,222.220734 231.872162,201.335556 
	C231.830734,200.877365 231.886078,200.888809 231.901474,200.912476 
	C235.398651,198.526093 239.305008,199.615891 243.474152,199.645844 
	C246.684998,200.252106 247.608749,202.667358 248.954742,204.723145 
	C251.431717,208.506256 253.513977,212.651840 258.005463,215.522751 
	C259.280487,210.500137 257.983093,205.494888 260.655212,200.932190 
	C261.578552,200.239319 262.309753,200.129852 263.434326,200.376709 
	C266.250458,203.567154 263.697693,206.910538 264.316956,210.084991 
	C264.563141,211.346832 263.844971,213.108398 265.104126,213.785461 
	C266.791138,214.692657 267.663788,212.803604 268.690948,211.880081 
	C273.471832,207.581451 277.738464,202.654678 284.083252,199.717682 
	C293.091614,199.581787 301.729218,198.251770 310.630249,200.714294 
	C310.999908,201.000687 311.013367,200.948624 311.039856,200.943863 
z"/>
<path fill="#1E3C6C" opacity="1.000000" stroke="none" 
	d="
M245.280945,200.652374 
	C240.998581,200.962753 236.928772,200.968964 232.387909,200.955658 
	C230.961472,181.896042 246.916885,161.503143 270.969604,161.338577 
	C294.400024,161.178268 310.336609,179.350830 311.000671,200.569702 
	C301.954620,200.992874 292.909302,200.985077 283.390503,200.959152 
	C282.980255,196.851044 286.758026,195.403778 288.817322,192.749573 
	C291.763519,188.952255 292.436768,184.949326 290.397461,180.625397 
	C288.625824,176.869019 284.382385,174.682907 280.053772,175.061523 
	C275.587372,175.452179 272.739655,177.997070 271.095306,181.989365 
	C269.256989,186.452530 267.751404,191.036026 266.536133,195.709320 
	C266.078461,197.469269 265.943512,199.348450 264.167664,200.853546 
	C263.128876,201.003983 262.416229,200.997971 261.347290,200.990692 
	C258.834473,198.578125 259.846222,195.623566 259.647064,192.891190 
	C259.490631,190.745392 259.778778,188.566574 259.396851,186.434448 
	C258.457672,181.191330 253.786179,178.124557 248.738968,179.376877 
	C243.763443,180.611404 240.967422,185.567642 242.328217,190.522781 
	C243.241333,193.847748 245.740295,196.656799 245.280945,200.652374 
z"/>
<path fill="#FB468B" opacity="1.000000" stroke="none" 
	d="
M263.873291,201.426575 
	C265.811707,194.538925 267.135803,187.887741 269.829590,181.614227 
	C272.036224,176.475266 275.627960,173.516159 281.172150,173.556442 
	C286.206757,173.593018 290.021515,176.009628 292.065704,180.792740 
	C294.380951,186.209976 292.911774,190.783539 288.879333,194.763351 
	C286.993408,196.624680 285.109100,198.487656 283.070496,200.645447 
	C277.651764,205.720215 272.398438,210.512634 267.108887,215.264679 
	C266.284088,216.005692 265.476807,217.371017 264.248047,216.824478 
	C263.153351,216.337585 263.155426,214.890610 263.080750,213.717758 
	C262.826385,209.722351 263.255646,205.775330 263.873291,201.426575 
z"/>
<path fill="#F9F9FA" opacity="1.000000" stroke="none" 
	d="
M266.998535,219.250656 
	C273.473511,212.834152 280.812103,208.347061 288.607971,204.526978 
	C293.013519,202.368225 297.323517,202.106598 301.112396,205.606369 
	C304.423737,208.665070 305.632690,212.481155 303.938019,216.899231 
	C302.011871,221.920731 298.119751,223.862518 292.990265,223.858719 
	C284.838593,223.852692 276.686523,223.891998 268.535706,223.807953 
	C267.352875,223.795761 265.613647,224.618118 265.048798,222.928970 
	C264.580841,221.529709 265.923615,220.552811 266.998535,219.250656 
z"/>
<path fill="#FBCB02" opacity="1.000000" stroke="none" 
	d="
M245.340332,201.165131 
	C243.704987,197.590424 242.301636,194.239807 240.988419,190.854233 
	C239.400040,186.759171 240.779938,183.288330 243.694931,180.434998 
	C246.846375,177.350235 250.763992,176.747543 254.788406,178.339661 
	C258.641510,179.864029 261.009888,182.871231 261.127716,187.095276 
	C261.248169,191.412476 260.962006,195.741013 260.922424,200.527023 
	C259.929199,205.362030 260.230560,209.837875 259.947693,214.270767 
	C259.870667,215.477722 260.592316,217.241928 258.999451,217.736343 
	C257.692566,218.142014 256.615112,216.830673 255.709641,215.926468 
	C251.468445,211.691193 248.478241,206.572174 245.340332,201.165131 
z"/>
</svg>