<svg version="1.1" id="Layer_1" xmlns="http://www.w3.org/2000/svg" xmlns:xlink="http://www.w3.org/1999/xlink" x="0px" y="0px"
	 width="100%" viewBox="0 0 512 512" enable-background="new 0 0 512 512" xml:space="preserve">
<path fill="#68677D" opacity="1.000000" stroke="none" 
	d="
M329.723846,1.258966 
	C333.030609,1.000000 336.061188,1.000000 339.545898,1.000000 
	C351.554352,7.928870 355.091217,19.305828 356.400269,31.592543 
	C357.916290,45.822071 355.017212,59.107220 346.182770,70.741356 
	C345.781677,71.269577 345.459503,71.872162 345.227203,72.493355 
	C344.248932,75.109230 342.228607,78.584419 344.582764,80.313995 
	C346.817780,81.956017 348.488098,78.181305 350.218475,76.642006 
	C361.537415,66.572762 373.835754,58.652267 389.665283,58.553490 
	C396.982178,58.507828 399.527008,61.161167 399.451355,68.623314 
	C399.327698,80.820122 394.171509,91.223076 387.119293,100.728104 
	C377.572296,113.595734 365.364929,123.177574 350.272980,128.807739 
	C345.771027,130.487228 343.472412,133.426041 343.580780,138.178406 
	C343.673523,142.246078 342.867584,146.384827 344.226837,150.760178 
	C347.056244,149.457245 348.643372,147.263046 350.471771,145.423492 
	C358.287872,137.559799 367.668427,132.393188 378.153503,129.061646 
	C382.007446,127.837097 385.933105,127.355705 389.975342,127.506615 
	C396.849609,127.763222 399.455688,130.119705 399.439850,136.903931 
	C399.410126,149.648193 393.909393,160.447388 386.583984,170.356339 
	C377.362488,182.830109 365.408752,191.923996 350.925079,197.610092 
	C349.993439,197.975815 349.021545,198.299164 348.245239,198.932755 
	C346.239380,200.569870 346.414917,202.010269 348.843933,202.952072 
	C350.581116,203.625656 352.457092,203.483719 354.285828,203.488068 
	C366.781006,203.517853 379.276398,203.447906 391.771301,203.518524 
	C403.425354,203.584381 409.357391,209.483887 409.487762,221.022766 
	C409.521637,224.021164 409.597900,227.024109 409.447235,230.018219 
	C409.009125,238.724213 402.806000,244.943207 394.128662,245.457413 
	C393.463165,245.496857 394.295135,245.443832 393.629089,245.472504 
	C380.814758,246.024200 380.504028,246.335312 380.501617,258.996399 
	C380.495972,288.485046 380.497681,317.973694 380.503082,347.462341 
	C380.503540,349.793457 380.432526,352.129059 380.754456,354.449005 
	C381.229675,357.873566 383.183319,359.809418 386.612183,360.260834 
	C388.933960,360.566498 391.268707,360.496460 393.599701,360.496826 
	C429.252625,360.502686 464.905579,360.496582 500.558502,360.507050 
	C502.721069,360.507690 504.891479,360.397186 507.041870,360.747589 
	C510.205750,361.263092 511.857605,363.118591 511.990417,366.329468 
	C512.024841,367.161926 512.008545,367.994537 512.007751,368.825745 
	C511.964050,414.800781 512.044128,460.775879 511.964478,506.750885 
	C511.961029,508.729523 512.626404,510.919891 510.299744,512.716919 
	C341.645782,513.000000 173.291550,513.000000 4.468657,513.000000 
	C2.309524,511.740143 2.073558,510.129059 2.063947,508.021240 
	C1.851375,461.400757 2.057690,414.780365 2.030237,368.160126 
	C2.026550,361.897858 3.648601,360.533722 11.086178,360.522766 
	C45.739597,360.471588 80.393097,360.506287 115.046562,360.499939 
	C117.045776,360.499573 119.045624,360.531067 121.044083,360.477051 
	C128.569931,360.273682 130.434845,358.509308 130.457169,350.818909 
	C130.549515,318.997894 130.540710,287.176544 130.462814,255.355515 
	C130.443329,247.394302 128.650513,245.717102 120.735550,245.510544 
	C107.728882,245.171097 102.034920,238.874695 101.378151,226.038971 
	C100.525681,209.378082 107.942352,202.511871 123.830818,203.386429 
	C134.627167,203.980713 145.482956,203.505707 156.312164,203.495789 
	C157.478333,203.494720 158.650284,203.531494 159.807388,203.389435 
	C161.436203,203.189453 163.520477,203.295273 163.960297,201.333328 
	C164.499939,198.926178 162.252640,198.366547 160.601822,197.744202 
	C148.520630,193.189590 138.177109,186.093506 129.536102,176.533478 
	C120.895103,166.973465 114.547134,156.177094 112.095551,143.352783 
	C109.613426,130.368744 113.949249,125.589882 127.047592,127.757553 
	C138.808731,129.703918 149.076935,135.175705 158.031006,143.034134 
	C160.754456,145.424332 163.514847,147.762161 166.917511,151.244614 
	C167.727768,144.520569 168.117691,138.993301 166.519836,133.546021 
	C165.695648,130.736343 162.992615,129.753296 160.475693,128.749969 
	C141.815170,121.311211 127.472832,108.934792 118.010033,91.152451 
	C114.145470,83.890221 111.421555,76.197372 111.552940,67.801788 
	C111.647476,61.760796 114.760208,58.578068 120.879929,58.560371 
	C136.109589,58.516335 148.317932,65.578629 159.341400,75.289810 
	C161.663757,77.335701 163.473892,80.001900 166.717636,81.745422 
	C168.160721,76.665665 166.336517,72.847252 163.860123,69.279976 
	C153.752762,54.720100 152.200363,38.780396 156.361832,22.026192 
	C157.901154,15.828746 161.171844,10.372318 165.063583,5.292348 
	C166.490341,3.429993 168.654373,2.822697 170.703461,1.268571 
	C174.030594,1.000000 177.061188,1.000000 180.545898,1.000000 
	C191.797485,7.130130 195.455231,17.612324 197.365860,28.831184 
	C199.875763,43.568790 197.017868,57.292301 188.108810,69.544243 
	C186.222824,72.137901 184.758102,74.929611 184.708298,78.248787 
	C184.695908,79.073586 184.639374,80.016525 185.407791,80.533546 
	C186.472076,81.249634 187.328232,80.478668 188.022339,79.806969 
	C191.374527,76.562904 194.696884,73.300125 198.529251,70.594162 
	C208.212692,63.756863 218.482361,58.477032 230.720139,58.535248 
	C237.832703,58.569080 240.255081,61.106869 240.498428,68.160309 
	C240.834549,77.902191 237.333206,86.519516 232.339706,94.502380 
	C222.539078,110.170258 209.520325,122.255569 191.845490,128.591858 
	C186.703903,130.435074 184.280807,133.645248 184.507324,139.049133 
	C184.665802,142.830200 184.223297,146.642303 184.853439,150.702316 
	C187.546539,150.199966 188.655441,148.191360 190.118011,146.763718 
	C198.481232,138.600311 208.046097,132.470108 219.277924,129.004959 
	C223.653351,127.655083 228.089691,127.232651 232.606689,127.582588 
	C237.657013,127.973839 240.003204,130.453018 240.448456,135.548553 
	C241.108078,143.097351 239.195312,150.150070 235.922089,156.797241 
	C226.562103,175.805252 212.125153,189.464172 192.410858,197.447159 
	C190.496521,198.222351 187.358994,198.494751 187.735107,201.105835 
	C188.165085,204.090866 191.395905,203.414597 193.582550,203.437408 
	C206.410507,203.571228 219.265396,203.992096 232.060989,203.346771 
	C242.922760,202.798950 251.780090,210.306992 250.537872,222.169128 
	C250.261658,224.806702 250.590698,227.500107 250.449997,230.161301 
	C249.988403,238.891891 243.836578,244.979416 235.052948,245.464691 
	C222.536713,246.156174 222.501984,246.188324 222.500687,258.898865 
	C222.497681,288.388763 222.499283,317.878632 222.500610,347.368530 
	C222.500702,349.201111 222.448288,351.036072 222.562851,352.865509 
	C222.913757,358.468536 224.598450,360.166473 230.314514,360.430206 
	C234.641327,360.629791 238.976959,360.500153 243.308578,360.496033 
	C255.637558,360.484283 267.967987,360.630463 280.295013,360.428406 
	C286.528717,360.326233 288.402313,358.503082 288.428528,352.252014 
	C288.566193,319.430450 288.564301,286.608185 288.429688,253.786636 
	C288.403900,247.499893 286.549164,245.834778 280.342072,245.537766 
	C278.677979,245.458145 277.006287,245.564789 275.345734,245.435089 
	C267.258575,244.803452 261.069916,238.602432 260.574615,230.492874 
	C260.341156,226.670319 260.439270,222.829300 260.529724,218.999237 
	C260.739380,210.121338 267.188080,203.670761 276.112946,203.536133 
	C284.775116,203.405457 293.439972,203.509445 302.103638,203.500000 
	C307.101898,203.494553 312.102570,203.597031 317.097351,203.449951 
	C319.322418,203.384445 322.564484,204.138885 323.185730,201.403976 
	C323.877991,198.356613 320.405731,198.248779 318.421783,197.397736 
	C297.238281,188.310852 281.688782,173.627609 273.166443,151.959366 
	C271.194946,146.946762 270.253326,141.723892 270.527588,136.309113 
	C270.829865,130.340698 273.255463,127.928970 279.125000,127.514824 
	C286.332825,127.006271 293.001465,128.955124 299.423615,131.886551 
	C307.683655,135.656876 315.007629,140.806488 321.409393,147.278839 
	C322.749573,148.633804 323.747131,150.528046 326.200562,150.994461 
	C326.713928,145.750336 326.685577,140.630356 326.196960,135.524384 
	C325.824615,131.633438 322.975159,130.004562 319.664703,128.794556 
	C302.069336,122.363388 288.757294,110.669365 278.941071,94.947372 
	C273.767517,86.661255 270.172150,77.723740 270.525146,67.655075 
	C270.752625,61.166782 273.215637,58.795925 279.775238,58.509022 
	C289.885406,58.066822 298.659698,61.927586 307.041351,66.953590 
	C312.341461,70.131760 317.205383,73.901703 321.524719,78.370186 
	C322.569000,79.450531 323.693146,81.602303 325.537231,80.321678 
	C327.042603,79.276276 326.261871,77.232666 325.913116,75.635201 
	C325.180176,72.277557 322.960571,69.703781 321.131836,66.933594 
	C309.976471,50.035358 310.114105,25.503912 321.318176,8.745182 
	C323.445160,5.563751 326.031586,3.133471 329.723846,1.258966 
z"/>
<path fill="#000000" opacity="1.000000" stroke="none" 
	d="
M510.500000,513.000000 
	C511.245148,510.046326 510.992035,506.928497 510.992249,503.841400 
	C510.995300,459.361145 510.995453,414.880920 510.992981,370.400665 
	C510.992615,363.875732 510.166809,363.016510 503.531860,363.013794 
	C463.549622,362.997467 423.566925,362.919281 383.585693,363.119476 
	C378.861389,363.143097 377.880463,361.683319 377.900879,357.261017 
	C378.067719,321.111176 378.104095,284.959503 377.868500,248.810425 
	C377.835876,243.807983 379.339905,242.653915 384.019592,242.863846 
	C388.586395,243.068695 393.253784,243.719864 397.834534,242.178909 
	C400.934570,241.136063 403.566925,239.612915 404.852905,236.611465 
	C408.472961,228.162170 408.462311,219.436569 404.489868,211.318237 
	C402.471924,207.194290 397.592377,205.991516 392.855865,205.998032 
	C377.196167,206.019623 361.536133,206.049622 345.877106,205.944092 
	C344.078979,205.931961 340.987885,207.305008 341.082825,203.571457 
	C341.152130,200.844635 339.629395,197.980057 344.552155,196.494888 
	C371.679565,188.310654 389.203369,170.454849 396.524078,142.859406 
	C397.054596,140.859573 396.981415,138.904526 396.972198,136.927780 
	C396.947479,131.616470 395.453979,130.103470 390.263153,130.010727 
	C378.484558,129.800308 368.609802,134.921234 359.247253,141.295685 
	C352.608398,145.815704 347.736176,152.291550 341.030121,158.214447 
	C341.030121,148.401123 341.043945,139.220627 341.018951,130.040222 
	C341.013702,128.116852 342.363220,128.251450 343.675568,127.903587 
	C365.569061,122.100456 380.968933,108.192055 391.549500,88.692093 
	C395.146606,82.062607 397.255585,74.764160 397.020935,66.987816 
	C396.897095,62.883194 394.966431,61.135212 390.903168,60.965176 
	C381.983246,60.591908 374.130005,63.739643 366.510040,67.847542 
	C356.756226,73.105812 349.049469,80.719742 341.055664,90.226807 
	C341.757874,82.236320 338.618561,75.138924 344.040436,68.780876 
	C359.149048,51.063507 357.345551,17.830273 339.992889,2.409166 
	C339.754669,2.197453 339.634796,1.852589 339.729858,1.284935 
	C395.959290,1.000000 451.918671,1.040371 507.877655,0.912771 
	C511.773193,0.903888 513.141724,1.301711 513.137268,5.870728 
	C512.974060,173.581879 513.005432,341.293243 512.898071,509.004486 
	C512.897278,510.258820 514.953979,513.313721 510.500000,513.000000 
z"/>
<path fill="#000000" opacity="1.000000" stroke="none" 
	d="
M170.531342,1.000000 
	C171.379562,3.964728 168.502090,4.717081 167.145081,6.434890 
	C153.077286,24.242842 153.406128,52.518040 167.131912,68.957237 
	C169.562424,71.868240 170.295303,74.898849 170.052856,78.522812 
	C169.832458,81.817261 170.006210,85.138077 170.006210,89.212685 
	C162.460159,82.553047 156.705673,74.886559 148.532333,70.059303 
	C139.969925,65.002258 131.126038,60.692905 120.786476,60.999924 
	C115.913490,61.144627 113.910339,63.031086 114.037773,68.032036 
	C114.333046,79.619278 119.039688,89.823128 125.601524,98.883865 
	C133.523865,109.823212 143.726212,118.429436 156.220276,124.141922 
	C159.858932,125.805580 163.597000,127.007889 167.415924,127.831039 
	C169.636429,128.309662 170.027618,129.223801 170.018036,131.115417 
	C169.973404,139.923935 169.998260,148.732803 169.998260,158.369247 
	C163.475784,152.344482 158.446899,145.776581 151.651794,141.200150 
	C142.256119,134.872284 132.387070,129.849548 120.602608,129.961441 
	C116.053635,130.004654 113.872696,131.863922 113.990280,136.484436 
	C114.240082,146.300720 117.817863,154.997238 122.783295,163.250916 
	C131.122650,177.112808 142.948578,187.035858 157.531006,193.753464 
	C160.176590,194.972183 163.110321,195.564499 165.909409,196.451096 
	C169.449478,197.572403 171.153381,201.111923 169.905807,204.525833 
	C169.060455,206.839066 167.128159,205.951538 165.666382,205.958542 
	C150.338837,206.032120 135.010803,205.999847 119.682915,206.007111 
	C108.992508,206.012177 103.898529,211.014709 104.062828,221.737717 
	C104.130264,226.139206 102.959770,230.703720 105.416611,234.916092 
	C108.380684,239.998169 112.443420,243.125595 118.592720,243.008621 
	C122.423203,242.935760 126.257980,243.072433 130.087662,242.981369 
	C132.230026,242.930450 133.078522,243.776413 133.017914,245.915649 
	C132.923615,249.244965 133.004593,252.579163 133.004669,255.911285 
	C133.005463,289.899231 132.929169,323.887573 133.101212,357.874634 
	C133.122528,362.087585 131.904129,363.111816 127.799606,363.095673 
	C88.980652,362.943146 50.160847,363.002075 11.341290,363.007996 
	C3.564828,363.009186 3.006413,363.559052 3.006238,371.028381 
	C3.005193,415.845825 3.003280,460.663239 3.012831,505.480682 
	C3.013320,507.776520 2.601695,510.167023 4.117887,512.586365 
	C2.350736,512.948059 0.128221,513.627014 0.975757,510.496948 
	C1.143837,509.876221 1.000000,509.171021 1.000000,508.504791 
	C1.000000,340.778656 1.010988,173.052536 0.921860,5.326459 
	C0.920062,1.943665 1.341087,0.871466 5.168515,0.883349 
	C60.132828,1.054003 115.097839,1.000000 170.531342,1.000000 
z"/>
<path fill="#000000" opacity="1.000000" stroke="none" 
	d="
M329.531342,1.000000 
	C328.854248,5.364207 324.899719,7.750485 322.646210,11.423014 
	C317.085449,20.485420 315.679626,30.115831 315.834534,40.496002 
	C316.013458,52.483139 319.982178,62.666641 327.947601,71.436630 
	C328.669403,72.231346 328.999298,73.071701 328.996246,74.120010 
	C328.981750,79.072357 328.989746,84.024773 328.989746,90.134056 
	C321.582977,81.621078 314.490723,74.399406 305.670593,69.145782 
	C297.649445,64.368034 289.311127,60.711834 279.708008,61.000389 
	C274.461151,61.158047 273.000641,62.535675 273.026184,67.927582 
	C273.082520,79.816528 277.982025,90.007782 284.872620,99.239716 
	C295.417450,113.367470 308.790894,123.698128 326.269135,127.847054 
	C328.316223,128.332977 329.041412,128.934555 329.025726,130.974182 
	C328.956665,139.954971 328.995911,148.936600 328.995911,157.437668 
	C325.864929,154.653946 322.525726,151.876511 319.403748,148.873230 
	C310.214081,140.032974 299.842529,133.403107 287.212402,130.552994 
	C284.531311,129.947968 281.940765,130.148163 279.309784,130.028259 
	C274.969208,129.830399 273.018738,132.008316 272.981598,136.336166 
	C272.877563,148.454041 277.930573,158.718201 284.780090,168.138962 
	C293.190826,179.707077 304.117188,188.376740 317.310150,194.031509 
	C319.998077,195.183624 322.819183,196.307098 325.680267,196.693817 
	C328.542847,197.080734 328.897095,198.345276 329.107788,200.865433 
	C329.461975,205.101059 327.939636,206.162704 323.816864,206.100937 
	C307.990784,205.863861 292.149933,206.318085 276.333771,205.857056 
	C269.669769,205.662796 262.037262,212.856247 262.954407,219.384476 
	C263.618164,224.109055 262.169128,228.977371 263.833008,233.688797 
	C265.792633,239.237610 270.101776,242.656693 275.809113,242.985031 
	C276.307434,243.013718 276.811981,242.955383 277.308014,242.999893 
	C281.725494,243.396469 287.411377,241.040894 290.236786,244.052124 
	C292.799438,246.783279 290.964508,252.332153 290.971710,256.631439 
	C291.028320,290.290131 290.913147,323.949493 291.110901,357.607117 
	C291.137054,362.056366 289.937653,363.162109 285.563965,363.110291 
	C265.404846,362.871307 245.240799,362.930847 225.079849,363.072540 
	C221.432999,363.098145 219.872253,362.476776 219.892334,358.253571 
	C220.067596,321.429749 220.065109,284.604340 219.894531,247.780441 
	C219.875214,243.612045 221.351105,242.927658 225.043793,242.889755 
	C231.022522,242.828384 237.400940,244.554092 242.717361,240.084305 
	C242.834869,239.985519 243.056396,240.016388 243.185944,239.925110 
	C247.743484,236.714111 250.178787,223.724335 247.757462,215.575592 
	C245.900146,209.325043 240.888916,206.011337 233.242676,206.007675 
	C217.579681,206.000168 201.916626,206.024612 186.253784,205.975525 
	C184.453339,205.969879 181.714188,206.770477 182.083099,203.453476 
	C182.357651,200.984863 180.327194,198.061661 185.215302,196.657959 
	C210.384033,189.430237 227.367996,173.181839 236.233841,148.480209 
	C237.655502,144.519257 238.078033,140.499084 238.031204,136.328720 
	C237.982574,131.997391 236.021851,130.057266 231.685104,129.975189 
	C219.138062,129.737717 208.855103,135.296585 199.129166,142.381836 
	C192.959351,146.876495 187.883377,152.510330 182.033890,159.081604 
	C182.033890,148.747833 182.035965,139.372040 182.031754,129.996231 
	C182.031082,128.485977 182.981689,128.316055 184.243347,127.966156 
	C212.125443,120.233864 229.672180,102.069733 237.620743,74.485718 
	C238.421524,71.706741 238.152908,68.510399 237.869049,65.556923 
	C237.546051,62.196327 235.141708,61.011028 231.905060,60.988388 
	C219.458466,60.901329 209.056549,66.165825 199.288330,73.212082 
	C193.007538,77.742706 187.954376,83.545433 182.023911,90.286934 
	C182.023911,83.988129 182.055466,78.906563 182.006775,73.825783 
	C181.989746,72.048973 183.389084,71.283195 184.313736,70.163353 
	C190.435944,62.748730 193.910461,54.337578 195.080444,44.706535 
	C197.123459,27.889122 192.268692,13.630078 180.752289,1.296843 
	C230.354233,1.000000 279.708466,1.000000 329.531342,1.000000 
z"/>
<path fill="#A7FEEA" opacity="1.000000" stroke="none" 
	d="
M247.999847,502.250854 
	C171.841721,502.250763 96.183609,502.251587 20.525499,502.249054 
	C13.813373,502.248810 13.805143,502.238678 13.804672,495.502289 
	C13.801980,457.006653 13.884954,418.510590 13.698515,380.015869 
	C13.675726,375.310547 14.736640,373.852020 19.689140,373.883392 
	C55.683628,374.111450 91.680672,374.090332 127.675583,373.898254 
	C132.118744,373.874542 133.255341,375.064087 133.200882,379.441498 
	C132.962463,398.602997 132.989273,417.770050 133.131638,436.933502 
	C133.297394,459.245178 147.221603,475.988800 168.978821,480.375092 
	C190.677307,484.749542 213.665176,469.190613 218.017014,447.254730 
	C218.899124,442.808289 219.032272,438.348724 219.022079,433.845215 
	C218.980576,415.514038 219.083420,397.182068 218.936569,378.851990 
	C218.908676,375.370300 219.494019,373.872833 223.502579,373.911194 
	C244.831543,374.115082 266.164551,374.115448 287.493469,373.910187 
	C291.481049,373.871796 292.094086,375.320709 292.067413,378.821533 
	C291.920197,398.151550 291.970734,417.483337 292.004791,436.814423 
	C292.049622,462.267700 310.935608,481.165588 336.112915,481.004944 
	C358.949707,480.859222 377.667480,461.511963 377.911102,437.463531 
	C378.108612,417.967712 378.049957,398.467499 377.876831,378.971283 
	C377.842743,375.135010 378.790039,373.895874 382.827698,373.912903 
	C420.322784,374.071075 457.819122,374.071808 495.314209,373.912720 
	C499.391144,373.895447 500.276825,375.235748 500.265747,379.018738 
	C500.151001,418.180634 500.121521,457.343353 500.295868,496.504791 
	C500.316223,501.077362 499.055450,502.353363 494.471161,502.345978 
	C412.480896,502.213989 330.490326,502.250549 247.999847,502.250854 
z"/>
<path fill="#FDE37F" opacity="1.000000" stroke="none" 
	d="
M191.918869,399.967590 
	C196.097412,403.146301 200.584106,401.665680 204.809158,401.834808 
	C207.528381,401.943695 208.730423,402.683960 208.658066,405.555023 
	C208.351746,417.706879 209.337616,429.890411 208.110641,442.014648 
	C206.440720,458.515747 191.382553,471.538544 175.251526,470.703430 
	C157.764236,469.798157 144.038467,456.430115 143.973068,439.290009 
	C143.764511,384.638428 143.866898,329.985657 143.850311,275.333344 
	C143.847534,266.169037 144.043060,256.998871 143.764206,247.843048 
	C143.636444,243.648331 144.565994,241.768005 149.213730,242.117294 
	C154.681442,242.528198 160.216827,242.446808 165.697922,242.137238 
	C169.804672,241.905319 171.132217,243.200104 171.075699,247.424728 
	C170.848328,264.417297 170.982025,281.414673 170.982117,298.410278 
	C170.982300,333.067993 170.981445,367.725708 170.985535,402.383423 
	C170.985718,403.882385 170.824936,405.420288 171.099060,406.872070 
	C171.634567,409.708160 173.472595,411.181152 176.416763,411.021667 
	C179.114319,410.875488 180.775986,409.454376 181.040131,406.728912 
	C181.216354,404.910583 181.182312,403.068451 181.182541,401.236969 
	C181.189072,350.416779 181.186279,299.596558 181.190063,248.776352 
	C181.190552,242.226990 181.203293,242.221817 187.719345,242.214172 
	C193.217926,242.207718 198.720596,242.343246 204.213486,242.166962 
	C207.363098,242.065872 208.812332,243.029663 208.677872,246.392685 
	C208.484970,251.217178 208.569839,256.055511 208.636414,260.886505 
	C208.668518,263.215820 207.719864,264.188110 205.363586,264.106598 
	C202.368820,264.003052 199.358002,263.977722 196.370056,264.168549 
	C193.235489,264.368744 190.845078,265.765381 190.774216,269.306030 
	C190.698090,273.109283 193.147430,274.502747 196.527908,274.806458 
	C196.859024,274.836212 197.194183,274.818298 197.526993,274.832794 
	C208.640106,275.317688 208.640076,275.317871 208.639175,286.733032 
	C208.638443,295.984558 208.638443,295.980164 199.456848,296.004883 
	C197.958954,296.008911 196.421494,295.867737 194.971863,296.150360 
	C192.152206,296.700073 190.632599,298.548584 190.759079,301.467712 
	C190.874878,304.140503 192.309555,305.927185 195.015030,306.155792 
	C198.161087,306.421600 201.339111,306.505188 204.494751,306.403687 
	C207.400177,306.310181 208.798813,307.231384 208.673874,310.377899 
	C208.495499,314.869629 208.528488,319.376770 208.664490,323.871490 
	C208.753250,326.804871 207.772141,328.166077 204.645432,327.959503 
	C201.660568,327.762238 198.648499,327.883575 195.652069,327.979492 
	C192.413742,328.083130 190.749527,329.939972 190.788757,333.090973 
	C190.828323,336.267639 192.604782,337.958923 195.819351,338.051575 
	C196.485428,338.070770 197.152100,338.069885 197.818466,338.079193 
	C208.639282,338.230377 208.639282,338.230438 208.639191,349.293793 
	C208.639099,359.572815 208.639084,359.571259 198.437622,359.703827 
	C197.438690,359.716797 196.436264,359.718201 195.442261,359.803833 
	C192.504181,360.057098 190.848999,361.683105 190.776306,364.626190 
	C190.697922,367.799469 192.414505,369.698792 195.538193,369.914612 
	C198.689835,370.132355 201.871597,370.110260 205.030182,369.969574 
	C207.572510,369.856415 208.758774,370.783569 208.632446,373.381104 
	C208.551620,375.042969 208.711502,376.716919 208.623184,378.377960 
	C208.412201,382.345612 210.193100,387.154236 207.848511,390.060638 
	C205.508255,392.961670 200.647766,390.785980 196.914154,391.156036 
	C191.512238,391.691406 190.005798,394.029053 191.918869,399.967590 
z"/>
<path fill="#FEE47F" opacity="1.000000" stroke="none" 
	d="
M302.524780,262.999908 
	C302.531830,257.000732 302.603973,251.500534 302.518494,246.002777 
	C302.475739,243.249725 303.561005,242.136307 306.368103,242.188751 
	C313.031494,242.313263 319.699371,242.284378 326.364136,242.205963 
	C328.931274,242.175751 330.039703,243.232346 329.870239,245.783890 
	C329.782074,247.110916 329.864471,248.449081 329.864471,249.782211 
	C329.865051,300.275238 329.863922,350.768280 329.869293,401.261292 
	C329.869507,403.093384 329.813110,404.937408 329.994324,406.754822 
	C330.266022,409.479340 331.943054,410.892700 334.641144,411.022186 
	C337.570679,411.162872 339.459259,409.754242 339.929810,406.864105 
	C340.194672,405.237183 340.046906,403.539368 340.047058,401.873505 
	C340.051147,350.713898 340.137817,299.553925 339.919098,248.395248 
	C339.896606,243.135925 341.481598,241.780701 346.394745,242.125504 
	C352.033051,242.521164 357.722107,242.312134 363.385132,242.186462 
	C366.115265,242.125870 367.334381,243.022949 367.249146,245.899734 
	C367.101105,250.894684 367.140045,255.898117 367.226715,260.895782 
	C367.267456,263.245758 366.328613,264.181396 363.982849,264.102081 
	C360.987701,264.000793 357.977631,263.985565 354.988098,264.166260 
	C351.775116,264.360474 349.468872,266.081543 349.426727,269.413544 
	C349.384552,272.748596 351.629547,274.500549 354.860870,274.760590 
	C357.014343,274.933838 359.231171,275.102783 361.348145,274.790009 
	C366.382660,274.046082 367.858093,276.274536 367.269623,280.936462 
	C366.979736,283.232849 367.245667,285.596497 367.215210,287.929108 
	C367.091187,297.426056 368.215973,295.815887 359.390350,295.994141 
	C357.891083,296.024414 356.389069,295.962402 354.891541,296.023193 
	C351.522675,296.159943 349.458954,298.039978 349.449341,301.298645 
	C349.440369,304.346771 351.437927,306.134735 354.581696,306.312378 
	C356.409760,306.415680 358.244293,306.428650 360.076141,306.436462 
	C367.215149,306.466949 367.215759,306.460175 367.219513,313.822144 
	C367.220947,316.655090 366.990173,319.511108 367.272614,322.315582 
	C367.696625,326.525879 366.464874,328.631195 361.839447,327.967133 
	C359.717529,327.662506 357.513000,327.974213 355.348267,327.917725 
	C351.706055,327.822693 349.405365,329.632233 349.472839,333.162933 
	C349.534698,336.399872 351.733887,338.161102 355.166260,338.086365 
	C357.997681,338.024689 360.837280,338.199249 363.663025,338.060669 
	C366.213654,337.935638 367.292389,338.887207 367.234497,341.498169 
	C367.123749,346.494965 367.138977,351.496857 367.222504,356.494629 
	C367.262848,358.907074 366.137085,359.733887 363.881714,359.691437 
	C360.883850,359.634979 357.883057,359.693420 354.884155,359.741364 
	C351.486603,359.795624 349.360046,361.607025 349.467224,364.930481 
	C349.572021,368.178864 351.724182,369.970245 355.102692,369.994965 
	C355.435974,369.997406 355.769409,369.993835 356.102509,370.002899 
	C367.220490,370.305481 367.220520,370.305664 367.219879,381.796967 
	C367.219360,391.094086 367.219299,391.091766 358.130157,391.159485 
	C356.964478,391.168182 355.783356,391.104431 354.636536,391.266449 
	C351.439667,391.718201 349.277832,393.456329 349.440857,396.831573 
	C349.590027,399.919891 351.722626,401.604980 354.717407,401.814453 
	C357.703491,402.023346 360.718109,402.020752 363.710205,401.886719 
	C366.275604,401.771759 367.270874,402.717926 367.239716,405.332031 
	C367.092773,417.661072 367.498840,430.012695 366.893555,442.316223 
	C366.148132,457.468628 351.319397,470.410919 335.265015,470.725616 
	C319.567139,471.033325 304.570435,458.171448 303.009216,442.949921 
	C302.653046,439.477600 302.546265,435.966431 302.544556,432.473053 
	C302.516907,376.148651 302.524902,319.824280 302.524780,262.999908 
z"/>
<path fill="#FDE37F" opacity="1.000000" stroke="none" 
	d="
M280.228760,217.000214 
	C295.489594,217.000259 310.275085,217.104538 325.057190,216.925659 
	C328.633057,216.882385 330.073700,217.674072 329.944855,221.570587 
	C329.532593,234.034088 331.490814,231.758179 319.774109,231.890274 
	C306.486511,232.040100 293.193420,231.791946 279.908447,232.033005 
	C275.319702,232.116257 273.383881,230.572052 273.977844,225.985504 
	C274.125946,224.841858 274.128571,223.645828 273.977722,222.502945 
	C273.380005,217.974564 275.555054,216.449097 280.228760,217.000214 
z"/>
<path fill="#FDE37F" opacity="1.000000" stroke="none" 
	d="
M343.292725,217.009918 
	C359.219788,217.003006 374.674652,217.158081 390.122894,216.906845 
	C394.821014,216.830444 396.528473,218.488831 396.001404,222.986267 
	C395.828461,224.461685 395.909760,225.976624 395.978699,227.468689 
	C396.125366,230.642929 394.618408,231.970856 391.488464,231.960617 
	C375.537872,231.908401 359.587006,231.894989 343.636475,231.942886 
	C341.188171,231.950241 339.893951,231.247421 340.028992,228.552734 
	C340.170166,225.735214 340.113586,222.903870 340.044403,220.081024 
	C339.996002,218.104858 340.556793,216.830215 343.292725,217.009918 
z"/>
<path fill="#FDE37F" opacity="1.000000" stroke="none" 
	d="
M181.852295,231.195679 
	C179.949631,216.999786 179.949631,216.999680 193.627457,216.999817 
	C206.248459,216.999954 218.871017,217.110916 231.489563,216.935120 
	C235.422455,216.880325 237.154282,217.864700 237.095291,222.210403 
	C236.963120,231.948792 237.172073,232.001221 227.440338,231.940857 
	C212.343918,231.847214 197.247955,231.678177 181.852295,231.195679 
z"/>
<path fill="#FDE47F" opacity="1.000000" stroke="none" 
	d="
M141.000000,217.000946 
	C149.803329,217.001358 158.113770,217.204330 166.406830,216.912735 
	C170.282364,216.776459 171.102859,218.163025 171.063217,221.756683 
	C170.951096,231.919693 171.105850,231.917816 160.766876,231.922379 
	C147.647675,231.928192 134.525574,231.786331 121.410812,232.032547 
	C116.734360,232.120361 114.430870,230.763901 115.029327,225.822342 
	C115.207748,224.349030 115.118881,222.833939 115.052834,221.342392 
	C114.911194,218.143753 116.416115,216.914810 119.576248,216.968597 
	C126.548996,217.087250 133.525208,217.002625 141.000000,217.000946 
z"/>
<path fill="#FDE37F" opacity="1.000000" stroke="none" 
	d="
M299.513306,78.432861 
	C312.910614,87.024208 322.944824,97.945236 328.013519,112.914322 
	C328.394043,114.038132 329.648376,115.440155 328.289429,116.553047 
	C327.285248,117.375404 326.042572,116.393379 325.024567,116.016380 
	C306.043243,108.986786 292.936920,95.988594 285.694580,77.085365 
	C285.229492,75.871452 284.358154,74.455460 285.542358,73.413254 
	C286.645782,72.442108 288.017853,73.333603 289.276123,73.712761 
	C292.795593,74.773270 296.013153,76.469742 299.513306,78.432861 
z"/>
<path fill="#FDE37F" opacity="1.000000" stroke="none" 
	d="
M366.805634,102.812897 
	C359.957092,109.038002 352.641571,113.746414 344.016357,116.322609 
	C341.234039,117.153641 340.571014,116.471107 341.495300,113.864273 
	C348.472809,94.185104 361.892090,80.843369 381.325134,73.439247 
	C382.391907,73.032791 383.676880,72.485641 384.569519,73.503967 
	C385.449341,74.507629 384.640045,75.670387 384.290161,76.758324 
	C380.996460,86.999962 374.804321,95.300171 366.805634,102.812897 
z"/>
<path fill="#FDE37F" opacity="1.000000" stroke="none" 
	d="
M131.189835,155.710876 
	C129.607224,152.208969 128.191055,149.033844 126.826775,145.836548 
	C126.380287,144.790192 125.571152,143.547623 126.370628,142.561081 
	C127.369606,141.328369 128.812592,142.079514 130.045731,142.480774 
	C138.412704,145.203232 145.594269,149.927170 151.963669,155.871506 
	C159.712814,163.103516 165.879532,171.454712 169.162613,181.690445 
	C169.553925,182.910446 170.650467,184.324356 169.490540,185.388687 
	C168.383957,186.404083 166.941833,185.241486 165.807922,184.841034 
	C150.763184,179.527863 139.692642,169.411835 131.189835,155.710876 
z"/>
<path fill="#FDE37F" opacity="1.000000" stroke="none" 
	d="
M325.227112,174.858078 
	C326.407959,177.814133 327.421997,180.434708 328.413330,183.063828 
	C329.303162,185.423645 328.704498,186.054108 326.171417,185.336304 
	C319.852356,183.545700 314.191650,180.507172 308.986084,176.605682 
	C299.114594,169.207169 291.251221,160.152054 286.617828,148.577652 
	C285.851227,146.662674 283.940491,144.216461 285.499298,142.610764 
	C287.337433,140.717331 289.871033,142.781708 291.867950,143.633682 
	C306.622681,149.928848 317.520020,160.436142 325.227112,174.858078 
z"/>
<path fill="#FDE37F" opacity="1.000000" stroke="none" 
	d="
M183.160461,112.155151 
	C190.379791,94.125008 202.764725,81.629005 220.272644,74.236931 
	C221.851837,73.570175 223.912292,72.073738 225.386658,73.403442 
	C227.190399,75.030167 225.469818,77.235718 224.762604,78.888130 
	C217.220108,96.511185 204.655838,109.065277 186.615143,115.862534 
	C185.395706,116.321991 183.747925,117.697739 182.509079,116.264290 
	C181.566330,115.173431 183.073471,113.822174 183.160461,112.155151 
z"/>
<path fill="#FDE37F" opacity="1.000000" stroke="none" 
	d="
M354.638550,180.742462 
	C351.125977,182.293945 347.967407,183.750336 344.718658,184.965500 
	C343.748138,185.328522 342.521362,186.368530 341.511414,185.381104 
	C340.516418,184.408203 341.433746,183.224701 341.758392,182.144028 
	C344.500122,173.017410 349.758331,165.423599 356.284515,158.666458 
	C363.049591,151.661987 370.790466,146.049667 380.102570,142.831604 
	C381.502502,142.347794 383.118195,141.298187 384.321808,142.299561 
	C385.973999,143.674179 384.419891,145.441986 383.894806,146.844772 
	C378.372650,161.596878 368.273651,172.467712 354.638550,180.742462 
z"/>
<path fill="#FDE37F" opacity="1.000000" stroke="none" 
	d="
M149.866058,85.116272 
	C158.898163,93.045731 165.782745,102.035828 169.356277,113.303436 
	C169.699799,114.386551 170.501709,115.575020 169.423737,116.519478 
	C168.564636,117.272202 167.529709,116.452789 166.643555,116.135094 
	C147.165588,109.152046 133.912399,95.873528 126.690842,76.524178 
	C126.300591,75.478531 125.442604,74.270744 126.606438,73.344093 
	C127.588081,72.562523 128.804016,73.123878 129.912399,73.490547 
	C137.266205,75.923279 143.764130,79.825722 149.866058,85.116272 
z"/>
<path fill="#FDE37F" opacity="1.000000" stroke="none" 
	d="
M216.909637,161.894043 
	C207.777756,173.472214 197.143723,182.280136 182.239075,186.016159 
	C182.988602,179.630173 185.608292,174.550583 188.744080,169.760101 
	C196.855789,157.368042 207.379578,147.828415 221.548340,142.753342 
	C222.927032,142.259537 224.490204,141.237274 225.661514,142.584778 
	C226.575729,143.636505 225.698044,145.070251 225.277847,146.327744 
	C223.420349,151.886292 220.640335,156.939987 216.909637,161.894043 
z"/>
<path fill="#FCE37F" opacity="1.000000" stroke="none" 
	d="
M333.371765,60.450912 
	C324.435333,46.047791 324.231720,31.736244 332.169342,17.224493 
	C333.805481,14.233215 335.147156,13.222780 337.546539,16.857460 
	C345.030945,28.195221 345.169525,47.992393 337.421204,58.994453 
	C336.659546,60.076008 336.199310,63.196381 333.371765,60.450912 
z"/>
<path fill="#FDE37F" opacity="1.000000" stroke="none" 
	d="
M171.829254,55.976410 
	C165.950607,42.640144 166.204529,29.850300 173.260971,17.433554 
	C175.731110,13.087056 176.516235,13.120991 179.041168,17.591492 
	C186.172211,30.217278 186.372864,43.152241 180.234436,56.206341 
	C179.271851,58.253403 178.362320,61.367279 176.187332,61.394260 
	C174.007767,61.421295 173.174240,58.265331 171.829254,55.976410 
z"/>
<path fill="#67657C" opacity="1.000000" stroke="none" 
	d="
M467.987793,480.573364 
	C467.997589,450.639862 467.996460,421.168121 468.008270,391.696350 
	C468.008942,390.035370 467.881042,388.323364 468.227997,386.725189 
	C468.781555,384.175049 470.515228,382.709137 473.226196,382.737885 
	C475.888214,382.766113 477.699127,384.043427 478.151123,386.734955 
	C478.424652,388.363678 478.455414,390.046875 478.456299,391.705627 
	C478.473022,422.675964 478.477264,453.646301 478.463684,484.616638 
	C478.459961,493.101135 477.527100,493.996979 468.961517,493.997772 
	C440.988312,494.000336 413.015106,494.001495 385.041901,493.990570 
	C383.547791,493.989990 381.998260,494.104218 380.571838,493.760773 
	C378.033356,493.149567 376.522156,491.342834 376.597931,488.708221 
	C376.679504,485.872070 378.224792,484.018768 381.183716,483.743530 
	C383.002136,483.574402 384.839752,483.564362 386.668793,483.563538 
	C411.977875,483.552063 437.287140,483.590057 462.595764,483.483643 
	C464.531952,483.475494 467.616638,484.934448 467.987793,480.573364 
z"/>
<path fill="#67657C" opacity="1.000000" stroke="none" 
	d="
M35.522823,411.999634 
	C35.525108,404.502258 35.511608,397.504822 35.536053,390.507568 
	C35.549412,386.682556 35.688107,382.644684 40.964779,382.807800 
	C45.794430,382.957092 46.013268,386.687836 46.010487,390.405518 
	C45.988667,419.561188 46.112358,448.717712 45.884235,477.871613 
	C45.847458,482.572510 47.290600,483.685760 51.744072,483.645569 
	C73.733978,483.447205 95.726654,483.550629 117.718338,483.567749 
	C119.546043,483.569183 121.395309,483.573425 123.196198,483.837738 
	C125.898369,484.234283 127.216866,486.040955 127.274788,488.698914 
	C127.333588,491.397156 125.877991,493.123413 123.341530,493.762604 
	C122.077728,494.081085 120.696716,493.989410 119.368690,493.989990 
	C94.211525,494.001099 69.054352,494.005493 43.897190,493.993683 
	C36.750362,493.990356 35.548153,492.808014 35.538139,485.472076 
	C35.504936,461.147980 35.523907,436.823792 35.522823,411.999634 
z"/>
</svg>